M48
;DRILL file {KiCad (5.0.1)-3} date 5/9/2019 5:35:59 PM
;FORMAT={-:-/ absolute / inch / decimal}
FMAT,2
INCH,TZ
T1C0.0256
T2C0.0669
T3C0.1200
T4C0.1201
T5C0.1570
T6C0.1575
%
G90
G05
M72
T1
X0.5103Y-0.2171
X0.7379Y-0.2171
T2
X10.3875Y-1.325
X10.7875Y-1.325
X7.0125Y-2.825
X7.4125Y-2.825
X11.325Y-2.075
X11.725Y-2.075
X6.2625Y-2.825
X6.6625Y-2.825
X3.2625Y-2.825
X3.6625Y-2.825
X6.075Y-0.575
X6.475Y-0.575
X5.7Y-1.325
X6.1Y-1.325
X4.575Y-0.575
X4.975Y-0.575
X4.2Y-1.325
X4.6Y-1.325
X2.7Y-1.325
X3.1Y-1.325
X11.325Y-3.575
X11.725Y-3.575
X2.1375Y-2.075
X2.5375Y-2.075
X7.7625Y-2.825
X8.1625Y-2.825
X4.3875Y-2.075
X4.7875Y-2.075
X10.575Y-3.575
X10.975Y-3.575
X2.8875Y-2.075
X3.2875Y-2.075
X9.45Y-1.325
X9.85Y-1.325
X3.45Y-1.325
X3.85Y-1.325
X1.95Y-1.325
X2.35Y-1.325
X10.2Y-0.575
X10.6Y-0.575
X2.5125Y-2.825
X2.9125Y-2.825
X0.1687Y-3.575
X0.5687Y-3.575
X1.3875Y-2.075
X1.7875Y-2.075
X0.2625Y-1.325
X0.6625Y-1.325
X5.5125Y-2.825
X5.9125Y-2.825
X1.1063Y-3.575
X1.5063Y-3.575
X7.575Y-0.575
X7.975Y-0.575
X1.575Y-0.575
X1.975Y-0.575
X1.2Y-1.325
X1.6Y-1.325
X8.325Y-0.575
X8.725Y-0.575
X9.075Y-0.575
X9.475Y-0.575
X4.8563Y-3.575
X5.2563Y-3.575
X8.1375Y-2.075
X8.5375Y-2.075
X10.1063Y-2.075
X10.5063Y-2.075
X8.8875Y-2.075
X9.2875Y-2.075
X9.825Y-3.575
X10.225Y-3.575
X4.0125Y-2.825
X4.4125Y-2.825
X8.6063Y-3.575
X9.0063Y-3.575
X2.0437Y-3.575
X2.4437Y-3.575
X11.325Y-1.325
X11.725Y-1.325
X0.075Y-0.575
X0.475Y-0.575
X11.325Y-0.575
X11.725Y-0.575
X3.825Y-0.575
X4.225Y-0.575
X10.575Y-2.825
X10.975Y-2.825
X3.6375Y-2.075
X4.0375Y-2.075
X9.5437Y-2.825
X9.9437Y-2.825
X4.7625Y-2.825
X5.1625Y-2.825
X5.8875Y-2.075
X6.2875Y-2.075
X7.6687Y-3.575
X8.0687Y-3.575
X4.95Y-1.325
X5.35Y-1.325
X5.325Y-0.575
X5.725Y-0.575
X3.075Y-0.575
X3.475Y-0.575
X2.325Y-0.575
X2.725Y-0.575
X11.325Y-2.825
X11.725Y-2.825
X7.3875Y-2.075
X7.7875Y-2.075
X0.5437Y-2.825
X0.9437Y-2.825
X1.7625Y-2.825
X2.1625Y-2.825
X8.7Y-1.325
X9.1Y-1.325
X7.2Y-1.325
X7.6Y-1.325
X0.825Y-0.575
X1.225Y-0.575
X8.5125Y-2.825
X8.9125Y-2.825
X6.6375Y-2.075
X7.0375Y-2.075
X0.3563Y-2.075
X0.7563Y-2.075
X5.1375Y-2.075
X5.5375Y-2.075
X6.825Y-0.575
X7.225Y-0.575
X7.95Y-1.325
X8.35Y-1.325
X6.45Y-1.325
X6.85Y-1.325
T3
X3.0863Y-3.85
X7.0263Y-3.85
T4
X9.9315Y-0.2994
X10.8685Y-0.2994
X9.8378Y-1.7994
X10.7748Y-1.7994
X0.2752Y-2.5494
X1.2123Y-2.5494
T5
X3.0863Y-3.25
X7.0263Y-3.25
T6
X7.8687Y-3.575
X5.15Y-1.325
X5.525Y-0.575
X3.275Y-0.575
X2.525Y-0.575
X11.525Y-2.825
X7.5875Y-2.075
X0.2752Y-3.1494
X0.7437Y-2.825
X1.2123Y-3.1494
X1.9625Y-2.825
X8.9Y-1.325
X7.4Y-1.325
X1.025Y-0.575
X8.7125Y-2.825
X6.8375Y-2.075
X0.5563Y-2.075
X5.3375Y-2.075
X7.025Y-0.575
X8.15Y-1.325
X6.65Y-1.325
X10.5875Y-1.325
X7.2125Y-2.825
X11.525Y-2.075
X6.4625Y-2.825
X3.4625Y-2.825
X6.275Y-0.575
X5.9Y-1.325
X4.775Y-0.575
X4.4Y-1.325
X2.9Y-1.325
X11.525Y-3.575
X2.3375Y-2.075
X7.9625Y-2.825
X4.5875Y-2.075
X10.775Y-3.575
X3.0875Y-2.075
X9.65Y-1.325
X3.65Y-1.325
X2.15Y-1.325
X9.9315Y-0.8994
X10.4Y-0.575
X10.8685Y-0.8994
X2.7125Y-2.825
X0.3687Y-3.575
X1.5875Y-2.075
X0.4625Y-1.325
X5.7125Y-2.825
X1.3063Y-3.575
X7.775Y-0.575
X1.775Y-0.575
X1.4Y-1.325
X8.525Y-0.575
X9.275Y-0.575
X5.0563Y-3.575
X8.3375Y-2.075
X9.8378Y-2.3994
X10.3063Y-2.075
X10.7748Y-2.3994
X9.0875Y-2.075
X10.025Y-3.575
X4.2125Y-2.825
X8.8063Y-3.575
X2.2437Y-3.575
X11.525Y-1.325
X0.275Y-0.575
X11.525Y-0.575
X4.025Y-0.575
X10.775Y-2.825
X3.8375Y-2.075
X9.7437Y-2.825
X4.9625Y-2.825
X6.0875Y-2.075
T0
M30
