M48
;DRILL file {KiCad (5.0.1)-3} date 5/9/2019 5:35:59 PM
;FORMAT={-:-/ absolute / inch / decimal}
FMAT,2
INCH,TZ
T1C0.0157
T2C0.0236
T3C0.0400
T4C0.0591
%
G90
G05
M72
T1
X0.1571Y-1.7918
X0.2294Y-1.3805
X0.3652Y-1.7965
X0.4086Y-0.8458
X0.4315Y-0.4108
X0.4366Y-0.6453
X0.4443Y-0.3017
X0.4588Y-0.5022
X0.4795Y-0.6469
X0.4939Y-0.4071
X0.564Y-0.3654
X0.7729Y-1.2483
X0.7998Y-1.4549
X0.7998Y-1.8786
X0.8039Y-0.3017
X0.8411Y-1.2627
X0.8603Y-1.4482
X0.864Y-1.7112
X0.8659Y-1.6699
X0.868Y-1.6244
X0.8781Y-1.8979
X0.8985Y-1.2044
X1.0333Y-1.4777
X1.0354Y-0.842
X1.054Y-3.0669
X1.0685Y-0.7791
X1.0788Y-3.7324
X1.0809Y-1.2235
X1.085Y-1.5227
X1.1057Y-0.8077
X1.1057Y-3.844
X1.1181Y-1.1284
X1.1346Y-1.0085
X1.1697Y-1.4859
X1.1834Y-1.6211
X1.2679Y-2.355
X1.2767Y-2.3164
X1.306Y-1.86
X1.3454Y-1.8583
X1.3712Y-2.3477
X1.3723Y-3.0917
X1.3804Y-1.6168
X1.55Y-2.3436
X2.0729Y-0.5729
X2.0915Y-0.682
X2.1567Y-0.7222
X2.3291Y-0.6882
X2.3643Y-0.9135
X2.697Y-0.9486
X2.7838Y-1.3971
X3.0338Y-0.9403
X3.0537Y-1.4318
X8.7481Y-0.7543
X8.8949Y-0.7833
X9.6657Y-2.3477
X9.7546Y-2.305
X10.5647Y-1.4363
X10.6474Y-1.4508
X10.7011Y-0.6593
X10.7073Y-0.5022
X10.8086Y-0.5477
X11.2016Y-0.7799
X11.3935Y-1.5645
X11.4141Y-1.8435
X11.4348Y-1.7897
X11.5443Y-1.2033
X11.5836Y-1.2007
X11.6456Y-1.4012
X11.6559Y-1.2359
T3
X2.46Y-1.04
X2.46Y-1.14
X2.46Y-1.24
X2.56Y-1.04
X2.56Y-1.14
X2.56Y-1.24
T4
X6.875Y-0.475
X7.125Y-0.375
X8.Y-1.225
X8.25Y-1.125
X6.5Y-1.225
X6.75Y-1.125
X10.4375Y-1.225
X10.6875Y-1.125
X7.0625Y-2.725
X7.3125Y-2.625
X11.375Y-1.975
X11.625Y-1.875
X6.3125Y-2.725
X6.5625Y-2.625
X3.3125Y-2.725
X3.5625Y-2.625
X6.125Y-0.475
X6.375Y-0.375
X5.75Y-1.225
X6.Y-1.125
X4.625Y-0.475
X4.875Y-0.375
X4.25Y-1.225
X4.5Y-1.125
X2.75Y-1.225
X3.Y-1.125
X11.375Y-3.475
X11.625Y-3.375
X2.1875Y-1.975
X2.4375Y-1.875
X7.8125Y-2.725
X8.0625Y-2.625
X4.4375Y-1.975
X4.6875Y-1.875
X10.625Y-3.475
X10.875Y-3.375
X2.9375Y-1.975
X3.1875Y-1.875
X9.5Y-1.225
X9.75Y-1.125
X3.5Y-1.225
X3.75Y-1.125
X2.Y-1.225
X2.25Y-1.125
X10.25Y-0.475
X10.5Y-0.375
X2.5625Y-2.725
X2.8125Y-2.625
X0.2187Y-3.475
X0.4687Y-3.375
X1.4375Y-1.975
X1.6875Y-1.875
X0.3125Y-1.225
X0.5625Y-1.125
X5.5625Y-2.725
X5.8125Y-2.625
X1.1563Y-3.475
X1.4063Y-3.375
X7.625Y-0.475
X7.875Y-0.375
X1.625Y-0.475
X1.875Y-0.375
X1.25Y-1.225
X1.5Y-1.125
X8.375Y-0.475
X8.625Y-0.375
X9.125Y-0.475
X9.375Y-0.375
X4.9063Y-3.475
X5.1563Y-3.375
X8.1875Y-1.975
X8.4375Y-1.875
X10.1563Y-1.975
X10.4063Y-1.875
X8.9375Y-1.975
X9.1875Y-1.875
X9.875Y-3.475
X10.125Y-3.375
X4.0625Y-2.725
X4.3125Y-2.625
X8.6563Y-3.475
X8.9063Y-3.375
X2.0937Y-3.475
X2.3437Y-3.375
X11.375Y-1.225
X11.625Y-1.125
X0.125Y-0.475
X0.375Y-0.375
X11.375Y-0.475
X11.625Y-0.375
X3.875Y-0.475
X4.125Y-0.375
X10.625Y-2.725
X10.875Y-2.625
X3.6875Y-1.975
X3.9375Y-1.875
X9.5937Y-2.725
X9.8437Y-2.625
X4.8125Y-2.725
X5.0625Y-2.625
X5.9375Y-1.975
X6.1875Y-1.875
X7.7187Y-3.475
X7.9687Y-3.375
X5.Y-1.225
X5.25Y-1.125
X5.375Y-0.475
X5.625Y-0.375
X3.125Y-0.475
X3.375Y-0.375
X2.375Y-0.475
X2.625Y-0.375
X11.375Y-2.725
X11.625Y-2.625
X7.4375Y-1.975
X7.6875Y-1.875
X0.5937Y-2.725
X0.8437Y-2.625
X1.8125Y-2.725
X2.0625Y-2.625
X8.75Y-1.225
X9.Y-1.125
X7.25Y-1.225
X7.5Y-1.125
X0.875Y-0.475
X1.125Y-0.375
X8.5625Y-2.725
X8.8125Y-2.625
X6.6875Y-1.975
X6.9375Y-1.875
X0.4063Y-1.975
X0.6563Y-1.875
X5.1875Y-1.975
X5.4375Y-1.875
T2
X0.4541Y-0.0616G85X0.4541Y-0.0852
G05
X0.4541Y-0.2163G85X0.4541Y-0.2596
G05
X0.7942Y-0.0616G85X0.7942Y-0.0852
G05
X0.7942Y-0.2163G85X0.7942Y-0.2596
G05
T0
M30
