G04 #@! TF.GenerationSoftware,KiCad,Pcbnew,(5.0.1)-3*
G04 #@! TF.CreationDate,2019-05-09T17:35:56-04:00*
G04 #@! TF.ProjectId,mullet-pcb,6D756C6C65742D7063622E6B69636164,rev?*
G04 #@! TF.SameCoordinates,Original*
G04 #@! TF.FileFunction,Paste,Bot*
G04 #@! TF.FilePolarity,Positive*
%FSLAX46Y46*%
G04 Gerber Fmt 4.6, Leading zero omitted, Abs format (unit mm)*
G04 Created by KiCad (PCBNEW (5.0.1)-3) date 5/9/2019 5:35:56 PM*
%MOMM*%
%LPD*%
G01*
G04 APERTURE LIST*
%ADD10R,1.500000X1.000000*%
%ADD11C,0.100000*%
%ADD12C,0.875000*%
%ADD13R,1.700000X1.000000*%
%ADD14R,0.700000X0.250000*%
%ADD15R,0.250000X0.700000*%
%ADD16R,0.772500X0.772500*%
%ADD17R,1.400000X1.200000*%
%ADD18R,1.200000X0.900000*%
%ADD19R,0.300000X2.450000*%
%ADD20R,0.600000X2.450000*%
%ADD21R,0.700000X0.600000*%
%ADD22R,0.700000X1.000000*%
%ADD23C,0.975000*%
G04 APERTURE END LIST*
D10*
G04 #@! TO.C,LED5*
X109622555Y-19815071D03*
X109622555Y-16615071D03*
X114522555Y-19815071D03*
X114522555Y-16615071D03*
G04 #@! TD*
D11*
G04 #@! TO.C,R1*
G36*
X13925871Y-12056992D02*
X13947106Y-12060142D01*
X13967930Y-12065358D01*
X13988142Y-12072590D01*
X14007548Y-12081769D01*
X14025961Y-12092805D01*
X14043204Y-12105593D01*
X14059110Y-12120009D01*
X14073526Y-12135915D01*
X14086314Y-12153158D01*
X14097350Y-12171571D01*
X14106529Y-12190977D01*
X14113761Y-12211189D01*
X14118977Y-12232013D01*
X14122127Y-12253248D01*
X14123180Y-12274689D01*
X14123180Y-12712189D01*
X14122127Y-12733630D01*
X14118977Y-12754865D01*
X14113761Y-12775689D01*
X14106529Y-12795901D01*
X14097350Y-12815307D01*
X14086314Y-12833720D01*
X14073526Y-12850963D01*
X14059110Y-12866869D01*
X14043204Y-12881285D01*
X14025961Y-12894073D01*
X14007548Y-12905109D01*
X13988142Y-12914288D01*
X13967930Y-12921520D01*
X13947106Y-12926736D01*
X13925871Y-12929886D01*
X13904430Y-12930939D01*
X13391930Y-12930939D01*
X13370489Y-12929886D01*
X13349254Y-12926736D01*
X13328430Y-12921520D01*
X13308218Y-12914288D01*
X13288812Y-12905109D01*
X13270399Y-12894073D01*
X13253156Y-12881285D01*
X13237250Y-12866869D01*
X13222834Y-12850963D01*
X13210046Y-12833720D01*
X13199010Y-12815307D01*
X13189831Y-12795901D01*
X13182599Y-12775689D01*
X13177383Y-12754865D01*
X13174233Y-12733630D01*
X13173180Y-12712189D01*
X13173180Y-12274689D01*
X13174233Y-12253248D01*
X13177383Y-12232013D01*
X13182599Y-12211189D01*
X13189831Y-12190977D01*
X13199010Y-12171571D01*
X13210046Y-12153158D01*
X13222834Y-12135915D01*
X13237250Y-12120009D01*
X13253156Y-12105593D01*
X13270399Y-12092805D01*
X13288812Y-12081769D01*
X13308218Y-12072590D01*
X13328430Y-12065358D01*
X13349254Y-12060142D01*
X13370489Y-12056992D01*
X13391930Y-12055939D01*
X13904430Y-12055939D01*
X13925871Y-12056992D01*
X13925871Y-12056992D01*
G37*
D12*
X13648180Y-12493439D03*
D11*
G36*
X13925871Y-10481992D02*
X13947106Y-10485142D01*
X13967930Y-10490358D01*
X13988142Y-10497590D01*
X14007548Y-10506769D01*
X14025961Y-10517805D01*
X14043204Y-10530593D01*
X14059110Y-10545009D01*
X14073526Y-10560915D01*
X14086314Y-10578158D01*
X14097350Y-10596571D01*
X14106529Y-10615977D01*
X14113761Y-10636189D01*
X14118977Y-10657013D01*
X14122127Y-10678248D01*
X14123180Y-10699689D01*
X14123180Y-11137189D01*
X14122127Y-11158630D01*
X14118977Y-11179865D01*
X14113761Y-11200689D01*
X14106529Y-11220901D01*
X14097350Y-11240307D01*
X14086314Y-11258720D01*
X14073526Y-11275963D01*
X14059110Y-11291869D01*
X14043204Y-11306285D01*
X14025961Y-11319073D01*
X14007548Y-11330109D01*
X13988142Y-11339288D01*
X13967930Y-11346520D01*
X13947106Y-11351736D01*
X13925871Y-11354886D01*
X13904430Y-11355939D01*
X13391930Y-11355939D01*
X13370489Y-11354886D01*
X13349254Y-11351736D01*
X13328430Y-11346520D01*
X13308218Y-11339288D01*
X13288812Y-11330109D01*
X13270399Y-11319073D01*
X13253156Y-11306285D01*
X13237250Y-11291869D01*
X13222834Y-11275963D01*
X13210046Y-11258720D01*
X13199010Y-11240307D01*
X13189831Y-11220901D01*
X13182599Y-11200689D01*
X13177383Y-11179865D01*
X13174233Y-11158630D01*
X13173180Y-11137189D01*
X13173180Y-10699689D01*
X13174233Y-10678248D01*
X13177383Y-10657013D01*
X13182599Y-10636189D01*
X13189831Y-10615977D01*
X13199010Y-10596571D01*
X13210046Y-10578158D01*
X13222834Y-10560915D01*
X13237250Y-10545009D01*
X13253156Y-10530593D01*
X13270399Y-10517805D01*
X13288812Y-10506769D01*
X13308218Y-10497590D01*
X13328430Y-10490358D01*
X13349254Y-10485142D01*
X13370489Y-10481992D01*
X13391930Y-10480939D01*
X13904430Y-10480939D01*
X13925871Y-10481992D01*
X13925871Y-10481992D01*
G37*
D12*
X13648180Y-10918439D03*
G04 #@! TD*
D11*
G04 #@! TO.C,R2*
G36*
X19332650Y-10481992D02*
X19353885Y-10485142D01*
X19374709Y-10490358D01*
X19394921Y-10497590D01*
X19414327Y-10506769D01*
X19432740Y-10517805D01*
X19449983Y-10530593D01*
X19465889Y-10545009D01*
X19480305Y-10560915D01*
X19493093Y-10578158D01*
X19504129Y-10596571D01*
X19513308Y-10615977D01*
X19520540Y-10636189D01*
X19525756Y-10657013D01*
X19528906Y-10678248D01*
X19529959Y-10699689D01*
X19529959Y-11137189D01*
X19528906Y-11158630D01*
X19525756Y-11179865D01*
X19520540Y-11200689D01*
X19513308Y-11220901D01*
X19504129Y-11240307D01*
X19493093Y-11258720D01*
X19480305Y-11275963D01*
X19465889Y-11291869D01*
X19449983Y-11306285D01*
X19432740Y-11319073D01*
X19414327Y-11330109D01*
X19394921Y-11339288D01*
X19374709Y-11346520D01*
X19353885Y-11351736D01*
X19332650Y-11354886D01*
X19311209Y-11355939D01*
X18798709Y-11355939D01*
X18777268Y-11354886D01*
X18756033Y-11351736D01*
X18735209Y-11346520D01*
X18714997Y-11339288D01*
X18695591Y-11330109D01*
X18677178Y-11319073D01*
X18659935Y-11306285D01*
X18644029Y-11291869D01*
X18629613Y-11275963D01*
X18616825Y-11258720D01*
X18605789Y-11240307D01*
X18596610Y-11220901D01*
X18589378Y-11200689D01*
X18584162Y-11179865D01*
X18581012Y-11158630D01*
X18579959Y-11137189D01*
X18579959Y-10699689D01*
X18581012Y-10678248D01*
X18584162Y-10657013D01*
X18589378Y-10636189D01*
X18596610Y-10615977D01*
X18605789Y-10596571D01*
X18616825Y-10578158D01*
X18629613Y-10560915D01*
X18644029Y-10545009D01*
X18659935Y-10530593D01*
X18677178Y-10517805D01*
X18695591Y-10506769D01*
X18714997Y-10497590D01*
X18735209Y-10490358D01*
X18756033Y-10485142D01*
X18777268Y-10481992D01*
X18798709Y-10480939D01*
X19311209Y-10480939D01*
X19332650Y-10481992D01*
X19332650Y-10481992D01*
G37*
D12*
X19054959Y-10918439D03*
D11*
G36*
X19332650Y-12056992D02*
X19353885Y-12060142D01*
X19374709Y-12065358D01*
X19394921Y-12072590D01*
X19414327Y-12081769D01*
X19432740Y-12092805D01*
X19449983Y-12105593D01*
X19465889Y-12120009D01*
X19480305Y-12135915D01*
X19493093Y-12153158D01*
X19504129Y-12171571D01*
X19513308Y-12190977D01*
X19520540Y-12211189D01*
X19525756Y-12232013D01*
X19528906Y-12253248D01*
X19529959Y-12274689D01*
X19529959Y-12712189D01*
X19528906Y-12733630D01*
X19525756Y-12754865D01*
X19520540Y-12775689D01*
X19513308Y-12795901D01*
X19504129Y-12815307D01*
X19493093Y-12833720D01*
X19480305Y-12850963D01*
X19465889Y-12866869D01*
X19449983Y-12881285D01*
X19432740Y-12894073D01*
X19414327Y-12905109D01*
X19394921Y-12914288D01*
X19374709Y-12921520D01*
X19353885Y-12926736D01*
X19332650Y-12929886D01*
X19311209Y-12930939D01*
X18798709Y-12930939D01*
X18777268Y-12929886D01*
X18756033Y-12926736D01*
X18735209Y-12921520D01*
X18714997Y-12914288D01*
X18695591Y-12905109D01*
X18677178Y-12894073D01*
X18659935Y-12881285D01*
X18644029Y-12866869D01*
X18629613Y-12850963D01*
X18616825Y-12833720D01*
X18605789Y-12815307D01*
X18596610Y-12795901D01*
X18589378Y-12775689D01*
X18584162Y-12754865D01*
X18581012Y-12733630D01*
X18579959Y-12712189D01*
X18579959Y-12274689D01*
X18581012Y-12253248D01*
X18584162Y-12232013D01*
X18589378Y-12211189D01*
X18596610Y-12190977D01*
X18605789Y-12171571D01*
X18616825Y-12153158D01*
X18629613Y-12135915D01*
X18644029Y-12120009D01*
X18659935Y-12105593D01*
X18677178Y-12092805D01*
X18695591Y-12081769D01*
X18714997Y-12072590D01*
X18735209Y-12065358D01*
X18756033Y-12060142D01*
X18777268Y-12056992D01*
X18798709Y-12055939D01*
X19311209Y-12055939D01*
X19332650Y-12056992D01*
X19332650Y-12056992D01*
G37*
D12*
X19054959Y-12493439D03*
G04 #@! TD*
D13*
G04 #@! TO.C,RESET1*
X27033475Y-27254119D03*
X33333475Y-27254119D03*
X27033475Y-23454119D03*
X33333475Y-23454119D03*
G04 #@! TD*
D14*
G04 #@! TO.C,U1*
X23067463Y-47367681D03*
X23067463Y-46867682D03*
X23067463Y-46367681D03*
X23067463Y-45867681D03*
X23067463Y-45367680D03*
X23067463Y-44867681D03*
X23067463Y-44367682D03*
X23067463Y-43867681D03*
X23067463Y-43367681D03*
X23067463Y-42867680D03*
X23067463Y-42367681D03*
D15*
X23967463Y-41467681D03*
X24467462Y-41467681D03*
X24967463Y-41467681D03*
X25467463Y-41467681D03*
X25967464Y-41467681D03*
X26467463Y-41467681D03*
X26967462Y-41467681D03*
X27467463Y-41467681D03*
X27967463Y-41467681D03*
X28467464Y-41467681D03*
X28967463Y-41467681D03*
D14*
X29867463Y-42367681D03*
X29867463Y-42867680D03*
X29867463Y-43367681D03*
X29867463Y-43867681D03*
X29867463Y-44367682D03*
X29867463Y-44867681D03*
X29867463Y-45367680D03*
X29867463Y-45867681D03*
X29867463Y-46367681D03*
X29867463Y-46867682D03*
X29867463Y-47367681D03*
D15*
X28967463Y-48267681D03*
X28467464Y-48267681D03*
X27967463Y-48267681D03*
X27467463Y-48267681D03*
X26967462Y-48267681D03*
X26467463Y-48267681D03*
X25967464Y-48267681D03*
X25467463Y-48267681D03*
X24967463Y-48267681D03*
X24467462Y-48267681D03*
X23967463Y-48267681D03*
D16*
X28398713Y-42936431D03*
X28398713Y-44223931D03*
X28398713Y-45511431D03*
X28398713Y-46798931D03*
X27111213Y-42936431D03*
X27111213Y-44223931D03*
X27111213Y-45511431D03*
X27111213Y-46798931D03*
X25823713Y-42936431D03*
X25823713Y-44223931D03*
X25823713Y-45511431D03*
X25823713Y-46798931D03*
X24536213Y-42936431D03*
X24536213Y-44223931D03*
X24536213Y-45511431D03*
X24536213Y-46798931D03*
G04 #@! TD*
D17*
G04 #@! TO.C,X1*
X25381944Y-36094992D03*
X27781944Y-36094992D03*
X25381944Y-34394992D03*
X27781944Y-34394992D03*
G04 #@! TD*
D18*
G04 #@! TO.C,D1*
X3810000Y-21462000D03*
X3810000Y-18162000D03*
G04 #@! TD*
G04 #@! TO.C,D2*
X22204539Y-21387368D03*
X22204539Y-18087368D03*
G04 #@! TD*
G04 #@! TO.C,D3*
X41402000Y-21462000D03*
X41402000Y-18162000D03*
G04 #@! TD*
G04 #@! TO.C,D4*
X61214000Y-21462000D03*
X61214000Y-18162000D03*
G04 #@! TD*
G04 #@! TO.C,D5*
X80264000Y-21462000D03*
X80264000Y-18162000D03*
G04 #@! TD*
G04 #@! TO.C,D6*
X99060000Y-21462000D03*
X99060000Y-18162000D03*
G04 #@! TD*
G04 #@! TO.C,D7*
X118110000Y-21462000D03*
X118110000Y-18162000D03*
G04 #@! TD*
G04 #@! TO.C,D8*
X137160000Y-21462000D03*
X137160000Y-18162000D03*
G04 #@! TD*
G04 #@! TO.C,D9*
X156210000Y-21462000D03*
X156210000Y-18162000D03*
G04 #@! TD*
G04 #@! TO.C,D10*
X175514000Y-18162000D03*
X175514000Y-21462000D03*
G04 #@! TD*
G04 #@! TO.C,D11*
X194310000Y-18162000D03*
X194310000Y-21462000D03*
G04 #@! TD*
G04 #@! TO.C,D12*
X213360000Y-18162000D03*
X213360000Y-21462000D03*
G04 #@! TD*
G04 #@! TO.C,D13*
X232410000Y-18416000D03*
X232410000Y-21716000D03*
G04 #@! TD*
G04 #@! TO.C,D14*
X261112000Y-18162000D03*
X261112000Y-21462000D03*
G04 #@! TD*
G04 #@! TO.C,D15*
X289560000Y-18162000D03*
X289560000Y-21462000D03*
G04 #@! TD*
G04 #@! TO.C,D16*
X3569524Y-31630562D03*
X3569524Y-34930562D03*
G04 #@! TD*
G04 #@! TO.C,D17*
X43621683Y-35035548D03*
X43621683Y-31735548D03*
G04 #@! TD*
G04 #@! TO.C,D18*
X46351319Y-31735548D03*
X46351319Y-35035548D03*
G04 #@! TD*
G04 #@! TO.C,D19*
X81626615Y-31788041D03*
X81626615Y-35088041D03*
G04 #@! TD*
G04 #@! TO.C,D20*
X84461237Y-31788041D03*
X84461237Y-35088041D03*
G04 #@! TD*
G04 #@! TO.C,D21*
X119894012Y-31998013D03*
X119894012Y-35298013D03*
G04 #@! TD*
G04 #@! TO.C,D22*
X122676141Y-31998013D03*
X122676141Y-35298013D03*
G04 #@! TD*
G04 #@! TO.C,D23*
X157846451Y-32207985D03*
X157846451Y-35507985D03*
G04 #@! TD*
G04 #@! TO.C,D24*
X160628580Y-32155492D03*
X160628580Y-35455492D03*
G04 #@! TD*
G04 #@! TO.C,D25*
X196113848Y-35507985D03*
X196113848Y-32207985D03*
G04 #@! TD*
G04 #@! TO.C,D26*
X198790991Y-32207985D03*
X198790991Y-35507985D03*
G04 #@! TD*
G04 #@! TO.C,D27*
X234223766Y-32050506D03*
X234223766Y-35350506D03*
G04 #@! TD*
G04 #@! TO.C,D28*
X236900909Y-32102999D03*
X236900909Y-35402999D03*
G04 #@! TD*
G04 #@! TO.C,D29*
X259892843Y-32155492D03*
X259892843Y-35455492D03*
G04 #@! TD*
G04 #@! TO.C,D30*
X284092116Y-32260478D03*
X284092116Y-35560478D03*
G04 #@! TD*
G04 #@! TO.C,D31*
X10668000Y-56262000D03*
X10668000Y-59562000D03*
G04 #@! TD*
G04 #@! TO.C,D32*
X37165044Y-56197286D03*
X37165044Y-59497286D03*
G04 #@! TD*
G04 #@! TO.C,D33*
X56388000Y-56262000D03*
X56388000Y-59562000D03*
G04 #@! TD*
G04 #@! TO.C,D34*
X75184000Y-59562000D03*
X75184000Y-56262000D03*
G04 #@! TD*
G04 #@! TO.C,D35*
X94488000Y-59562000D03*
X94488000Y-56262000D03*
G04 #@! TD*
G04 #@! TO.C,D36*
X113284000Y-59562000D03*
X113284000Y-56262000D03*
G04 #@! TD*
G04 #@! TO.C,D37*
X132334000Y-59562000D03*
X132334000Y-56262000D03*
G04 #@! TD*
G04 #@! TO.C,D38*
X151638000Y-59562000D03*
X151638000Y-56262000D03*
G04 #@! TD*
G04 #@! TO.C,D39*
X170688000Y-56262000D03*
X170688000Y-59562000D03*
G04 #@! TD*
G04 #@! TO.C,D40*
X189992000Y-59562000D03*
X189992000Y-56262000D03*
G04 #@! TD*
G04 #@! TO.C,D41*
X208534000Y-59562000D03*
X208534000Y-56262000D03*
G04 #@! TD*
G04 #@! TO.C,D42*
X227584000Y-59562000D03*
X227584000Y-56262000D03*
G04 #@! TD*
G04 #@! TO.C,D43*
X258572000Y-59562000D03*
X258572000Y-56262000D03*
G04 #@! TD*
G04 #@! TO.C,D44*
X289560000Y-59562000D03*
X289560000Y-56262000D03*
G04 #@! TD*
G04 #@! TO.C,D45*
X15494000Y-78612000D03*
X15494000Y-75312000D03*
G04 #@! TD*
G04 #@! TO.C,D46*
X46736000Y-78612000D03*
X46736000Y-75312000D03*
G04 #@! TD*
G04 #@! TO.C,D47*
X65786000Y-78612000D03*
X65786000Y-75312000D03*
G04 #@! TD*
G04 #@! TO.C,D48*
X84836000Y-78612000D03*
X84836000Y-75312000D03*
G04 #@! TD*
G04 #@! TO.C,D49*
X103886000Y-78612000D03*
X103886000Y-75312000D03*
G04 #@! TD*
G04 #@! TO.C,D50*
X122682000Y-78612000D03*
X122682000Y-75312000D03*
G04 #@! TD*
G04 #@! TO.C,D51*
X141986000Y-75312000D03*
X141986000Y-78612000D03*
G04 #@! TD*
G04 #@! TO.C,D52*
X161290000Y-75312000D03*
X161290000Y-78612000D03*
G04 #@! TD*
G04 #@! TO.C,D53*
X180086000Y-78612000D03*
X180086000Y-75312000D03*
G04 #@! TD*
G04 #@! TO.C,D54*
X199136000Y-78612000D03*
X199136000Y-75312000D03*
G04 #@! TD*
G04 #@! TO.C,D55*
X218186000Y-78612000D03*
X218186000Y-75312000D03*
G04 #@! TD*
G04 #@! TO.C,D56*
X244094000Y-78612000D03*
X244094000Y-75312000D03*
G04 #@! TD*
G04 #@! TO.C,D57*
X270510000Y-78612000D03*
X270510000Y-75312000D03*
G04 #@! TD*
G04 #@! TO.C,D58*
X289560000Y-78612000D03*
X289560000Y-75312000D03*
G04 #@! TD*
G04 #@! TO.C,D59*
X6096000Y-94108000D03*
X6096000Y-97408000D03*
G04 #@! TD*
G04 #@! TO.C,D60*
X29972000Y-94108000D03*
X29972000Y-97408000D03*
G04 #@! TD*
G04 #@! TO.C,D61*
X53848000Y-94108000D03*
X53848000Y-97408000D03*
G04 #@! TD*
G04 #@! TO.C,D62*
X125222000Y-94108000D03*
X125222000Y-97408000D03*
G04 #@! TD*
G04 #@! TO.C,D63*
X196596000Y-94108000D03*
X196596000Y-97408000D03*
G04 #@! TD*
G04 #@! TO.C,D64*
X220218000Y-97154000D03*
X220218000Y-93854000D03*
G04 #@! TD*
G04 #@! TO.C,D65*
X251460000Y-94108000D03*
X251460000Y-97408000D03*
G04 #@! TD*
G04 #@! TO.C,D66*
X270510000Y-94108000D03*
X270510000Y-97408000D03*
G04 #@! TD*
G04 #@! TO.C,D67*
X289560000Y-94108000D03*
X289560000Y-97408000D03*
G04 #@! TD*
D19*
G04 #@! TO.C,USB1*
X15602886Y-7460098D03*
X16102886Y-7460098D03*
X16602886Y-7460098D03*
X15102886Y-7460098D03*
X17102886Y-7460098D03*
X14602886Y-7460098D03*
X17602886Y-7460098D03*
X14102886Y-7460098D03*
D20*
X13402886Y-7460098D03*
X18302886Y-7460098D03*
X12627886Y-7460098D03*
X19077886Y-7460098D03*
G04 #@! TD*
D21*
G04 #@! TO.C,U2*
X15325323Y-13653306D03*
X17325323Y-13653306D03*
X15325323Y-11753306D03*
D22*
X17325323Y-11953306D03*
G04 #@! TD*
D11*
G04 #@! TO.C,F1*
G36*
X14653252Y-16828990D02*
X14676913Y-16832500D01*
X14700117Y-16838312D01*
X14722639Y-16846370D01*
X14744263Y-16856598D01*
X14764780Y-16868895D01*
X14783993Y-16883145D01*
X14801717Y-16899209D01*
X14817781Y-16916933D01*
X14832031Y-16936146D01*
X14844328Y-16956663D01*
X14854556Y-16978287D01*
X14862614Y-17000809D01*
X14868426Y-17024013D01*
X14871936Y-17047674D01*
X14873110Y-17071566D01*
X14873110Y-17559066D01*
X14871936Y-17582958D01*
X14868426Y-17606619D01*
X14862614Y-17629823D01*
X14854556Y-17652345D01*
X14844328Y-17673969D01*
X14832031Y-17694486D01*
X14817781Y-17713699D01*
X14801717Y-17731423D01*
X14783993Y-17747487D01*
X14764780Y-17761737D01*
X14744263Y-17774034D01*
X14722639Y-17784262D01*
X14700117Y-17792320D01*
X14676913Y-17798132D01*
X14653252Y-17801642D01*
X14629360Y-17802816D01*
X13716860Y-17802816D01*
X13692968Y-17801642D01*
X13669307Y-17798132D01*
X13646103Y-17792320D01*
X13623581Y-17784262D01*
X13601957Y-17774034D01*
X13581440Y-17761737D01*
X13562227Y-17747487D01*
X13544503Y-17731423D01*
X13528439Y-17713699D01*
X13514189Y-17694486D01*
X13501892Y-17673969D01*
X13491664Y-17652345D01*
X13483606Y-17629823D01*
X13477794Y-17606619D01*
X13474284Y-17582958D01*
X13473110Y-17559066D01*
X13473110Y-17071566D01*
X13474284Y-17047674D01*
X13477794Y-17024013D01*
X13483606Y-17000809D01*
X13491664Y-16978287D01*
X13501892Y-16956663D01*
X13514189Y-16936146D01*
X13528439Y-16916933D01*
X13544503Y-16899209D01*
X13562227Y-16883145D01*
X13581440Y-16868895D01*
X13601957Y-16856598D01*
X13623581Y-16846370D01*
X13646103Y-16838312D01*
X13669307Y-16832500D01*
X13692968Y-16828990D01*
X13716860Y-16827816D01*
X14629360Y-16827816D01*
X14653252Y-16828990D01*
X14653252Y-16828990D01*
G37*
D23*
X14173110Y-17315316D03*
D11*
G36*
X14653252Y-14953990D02*
X14676913Y-14957500D01*
X14700117Y-14963312D01*
X14722639Y-14971370D01*
X14744263Y-14981598D01*
X14764780Y-14993895D01*
X14783993Y-15008145D01*
X14801717Y-15024209D01*
X14817781Y-15041933D01*
X14832031Y-15061146D01*
X14844328Y-15081663D01*
X14854556Y-15103287D01*
X14862614Y-15125809D01*
X14868426Y-15149013D01*
X14871936Y-15172674D01*
X14873110Y-15196566D01*
X14873110Y-15684066D01*
X14871936Y-15707958D01*
X14868426Y-15731619D01*
X14862614Y-15754823D01*
X14854556Y-15777345D01*
X14844328Y-15798969D01*
X14832031Y-15819486D01*
X14817781Y-15838699D01*
X14801717Y-15856423D01*
X14783993Y-15872487D01*
X14764780Y-15886737D01*
X14744263Y-15899034D01*
X14722639Y-15909262D01*
X14700117Y-15917320D01*
X14676913Y-15923132D01*
X14653252Y-15926642D01*
X14629360Y-15927816D01*
X13716860Y-15927816D01*
X13692968Y-15926642D01*
X13669307Y-15923132D01*
X13646103Y-15917320D01*
X13623581Y-15909262D01*
X13601957Y-15899034D01*
X13581440Y-15886737D01*
X13562227Y-15872487D01*
X13544503Y-15856423D01*
X13528439Y-15838699D01*
X13514189Y-15819486D01*
X13501892Y-15798969D01*
X13491664Y-15777345D01*
X13483606Y-15754823D01*
X13477794Y-15731619D01*
X13474284Y-15707958D01*
X13473110Y-15684066D01*
X13473110Y-15196566D01*
X13474284Y-15172674D01*
X13477794Y-15149013D01*
X13483606Y-15125809D01*
X13491664Y-15103287D01*
X13501892Y-15081663D01*
X13514189Y-15061146D01*
X13528439Y-15041933D01*
X13544503Y-15024209D01*
X13562227Y-15008145D01*
X13581440Y-14993895D01*
X13601957Y-14981598D01*
X13623581Y-14971370D01*
X13646103Y-14963312D01*
X13669307Y-14957500D01*
X13692968Y-14953990D01*
X13716860Y-14952816D01*
X14629360Y-14952816D01*
X14653252Y-14953990D01*
X14653252Y-14953990D01*
G37*
D23*
X14173110Y-15440316D03*
G04 #@! TD*
D11*
G04 #@! TO.C,R5*
G36*
X16393042Y-15153869D02*
X16414277Y-15157019D01*
X16435101Y-15162235D01*
X16455313Y-15169467D01*
X16474719Y-15178646D01*
X16493132Y-15189682D01*
X16510375Y-15202470D01*
X16526281Y-15216886D01*
X16540697Y-15232792D01*
X16553485Y-15250035D01*
X16564521Y-15268448D01*
X16573700Y-15287854D01*
X16580932Y-15308066D01*
X16586148Y-15328890D01*
X16589298Y-15350125D01*
X16590351Y-15371566D01*
X16590351Y-15809066D01*
X16589298Y-15830507D01*
X16586148Y-15851742D01*
X16580932Y-15872566D01*
X16573700Y-15892778D01*
X16564521Y-15912184D01*
X16553485Y-15930597D01*
X16540697Y-15947840D01*
X16526281Y-15963746D01*
X16510375Y-15978162D01*
X16493132Y-15990950D01*
X16474719Y-16001986D01*
X16455313Y-16011165D01*
X16435101Y-16018397D01*
X16414277Y-16023613D01*
X16393042Y-16026763D01*
X16371601Y-16027816D01*
X15859101Y-16027816D01*
X15837660Y-16026763D01*
X15816425Y-16023613D01*
X15795601Y-16018397D01*
X15775389Y-16011165D01*
X15755983Y-16001986D01*
X15737570Y-15990950D01*
X15720327Y-15978162D01*
X15704421Y-15963746D01*
X15690005Y-15947840D01*
X15677217Y-15930597D01*
X15666181Y-15912184D01*
X15657002Y-15892778D01*
X15649770Y-15872566D01*
X15644554Y-15851742D01*
X15641404Y-15830507D01*
X15640351Y-15809066D01*
X15640351Y-15371566D01*
X15641404Y-15350125D01*
X15644554Y-15328890D01*
X15649770Y-15308066D01*
X15657002Y-15287854D01*
X15666181Y-15268448D01*
X15677217Y-15250035D01*
X15690005Y-15232792D01*
X15704421Y-15216886D01*
X15720327Y-15202470D01*
X15737570Y-15189682D01*
X15755983Y-15178646D01*
X15775389Y-15169467D01*
X15795601Y-15162235D01*
X15816425Y-15157019D01*
X15837660Y-15153869D01*
X15859101Y-15152816D01*
X16371601Y-15152816D01*
X16393042Y-15153869D01*
X16393042Y-15153869D01*
G37*
D12*
X16115351Y-15590316D03*
D11*
G36*
X16393042Y-16728869D02*
X16414277Y-16732019D01*
X16435101Y-16737235D01*
X16455313Y-16744467D01*
X16474719Y-16753646D01*
X16493132Y-16764682D01*
X16510375Y-16777470D01*
X16526281Y-16791886D01*
X16540697Y-16807792D01*
X16553485Y-16825035D01*
X16564521Y-16843448D01*
X16573700Y-16862854D01*
X16580932Y-16883066D01*
X16586148Y-16903890D01*
X16589298Y-16925125D01*
X16590351Y-16946566D01*
X16590351Y-17384066D01*
X16589298Y-17405507D01*
X16586148Y-17426742D01*
X16580932Y-17447566D01*
X16573700Y-17467778D01*
X16564521Y-17487184D01*
X16553485Y-17505597D01*
X16540697Y-17522840D01*
X16526281Y-17538746D01*
X16510375Y-17553162D01*
X16493132Y-17565950D01*
X16474719Y-17576986D01*
X16455313Y-17586165D01*
X16435101Y-17593397D01*
X16414277Y-17598613D01*
X16393042Y-17601763D01*
X16371601Y-17602816D01*
X15859101Y-17602816D01*
X15837660Y-17601763D01*
X15816425Y-17598613D01*
X15795601Y-17593397D01*
X15775389Y-17586165D01*
X15755983Y-17576986D01*
X15737570Y-17565950D01*
X15720327Y-17553162D01*
X15704421Y-17538746D01*
X15690005Y-17522840D01*
X15677217Y-17505597D01*
X15666181Y-17487184D01*
X15657002Y-17467778D01*
X15649770Y-17447566D01*
X15644554Y-17426742D01*
X15641404Y-17405507D01*
X15640351Y-17384066D01*
X15640351Y-16946566D01*
X15641404Y-16925125D01*
X15644554Y-16903890D01*
X15649770Y-16883066D01*
X15657002Y-16862854D01*
X15666181Y-16843448D01*
X15677217Y-16825035D01*
X15690005Y-16807792D01*
X15704421Y-16791886D01*
X15720327Y-16777470D01*
X15737570Y-16764682D01*
X15755983Y-16753646D01*
X15775389Y-16744467D01*
X15795601Y-16737235D01*
X15816425Y-16732019D01*
X15837660Y-16728869D01*
X15859101Y-16727816D01*
X16371601Y-16727816D01*
X16393042Y-16728869D01*
X16393042Y-16728869D01*
G37*
D12*
X16115351Y-17165316D03*
G04 #@! TD*
D11*
G04 #@! TO.C,R6*
G36*
X18072818Y-16728869D02*
X18094053Y-16732019D01*
X18114877Y-16737235D01*
X18135089Y-16744467D01*
X18154495Y-16753646D01*
X18172908Y-16764682D01*
X18190151Y-16777470D01*
X18206057Y-16791886D01*
X18220473Y-16807792D01*
X18233261Y-16825035D01*
X18244297Y-16843448D01*
X18253476Y-16862854D01*
X18260708Y-16883066D01*
X18265924Y-16903890D01*
X18269074Y-16925125D01*
X18270127Y-16946566D01*
X18270127Y-17384066D01*
X18269074Y-17405507D01*
X18265924Y-17426742D01*
X18260708Y-17447566D01*
X18253476Y-17467778D01*
X18244297Y-17487184D01*
X18233261Y-17505597D01*
X18220473Y-17522840D01*
X18206057Y-17538746D01*
X18190151Y-17553162D01*
X18172908Y-17565950D01*
X18154495Y-17576986D01*
X18135089Y-17586165D01*
X18114877Y-17593397D01*
X18094053Y-17598613D01*
X18072818Y-17601763D01*
X18051377Y-17602816D01*
X17538877Y-17602816D01*
X17517436Y-17601763D01*
X17496201Y-17598613D01*
X17475377Y-17593397D01*
X17455165Y-17586165D01*
X17435759Y-17576986D01*
X17417346Y-17565950D01*
X17400103Y-17553162D01*
X17384197Y-17538746D01*
X17369781Y-17522840D01*
X17356993Y-17505597D01*
X17345957Y-17487184D01*
X17336778Y-17467778D01*
X17329546Y-17447566D01*
X17324330Y-17426742D01*
X17321180Y-17405507D01*
X17320127Y-17384066D01*
X17320127Y-16946566D01*
X17321180Y-16925125D01*
X17324330Y-16903890D01*
X17329546Y-16883066D01*
X17336778Y-16862854D01*
X17345957Y-16843448D01*
X17356993Y-16825035D01*
X17369781Y-16807792D01*
X17384197Y-16791886D01*
X17400103Y-16777470D01*
X17417346Y-16764682D01*
X17435759Y-16753646D01*
X17455165Y-16744467D01*
X17475377Y-16737235D01*
X17496201Y-16732019D01*
X17517436Y-16728869D01*
X17538877Y-16727816D01*
X18051377Y-16727816D01*
X18072818Y-16728869D01*
X18072818Y-16728869D01*
G37*
D12*
X17795127Y-17165316D03*
D11*
G36*
X18072818Y-15153869D02*
X18094053Y-15157019D01*
X18114877Y-15162235D01*
X18135089Y-15169467D01*
X18154495Y-15178646D01*
X18172908Y-15189682D01*
X18190151Y-15202470D01*
X18206057Y-15216886D01*
X18220473Y-15232792D01*
X18233261Y-15250035D01*
X18244297Y-15268448D01*
X18253476Y-15287854D01*
X18260708Y-15308066D01*
X18265924Y-15328890D01*
X18269074Y-15350125D01*
X18270127Y-15371566D01*
X18270127Y-15809066D01*
X18269074Y-15830507D01*
X18265924Y-15851742D01*
X18260708Y-15872566D01*
X18253476Y-15892778D01*
X18244297Y-15912184D01*
X18233261Y-15930597D01*
X18220473Y-15947840D01*
X18206057Y-15963746D01*
X18190151Y-15978162D01*
X18172908Y-15990950D01*
X18154495Y-16001986D01*
X18135089Y-16011165D01*
X18114877Y-16018397D01*
X18094053Y-16023613D01*
X18072818Y-16026763D01*
X18051377Y-16027816D01*
X17538877Y-16027816D01*
X17517436Y-16026763D01*
X17496201Y-16023613D01*
X17475377Y-16018397D01*
X17455165Y-16011165D01*
X17435759Y-16001986D01*
X17417346Y-15990950D01*
X17400103Y-15978162D01*
X17384197Y-15963746D01*
X17369781Y-15947840D01*
X17356993Y-15930597D01*
X17345957Y-15912184D01*
X17336778Y-15892778D01*
X17329546Y-15872566D01*
X17324330Y-15851742D01*
X17321180Y-15830507D01*
X17320127Y-15809066D01*
X17320127Y-15371566D01*
X17321180Y-15350125D01*
X17324330Y-15328890D01*
X17329546Y-15308066D01*
X17336778Y-15287854D01*
X17345957Y-15268448D01*
X17356993Y-15250035D01*
X17369781Y-15232792D01*
X17384197Y-15216886D01*
X17400103Y-15202470D01*
X17417346Y-15189682D01*
X17435759Y-15178646D01*
X17455165Y-15169467D01*
X17475377Y-15162235D01*
X17496201Y-15157019D01*
X17517436Y-15153869D01*
X17538877Y-15152816D01*
X18051377Y-15152816D01*
X18072818Y-15153869D01*
X18072818Y-15153869D01*
G37*
D12*
X17795127Y-15590316D03*
G04 #@! TD*
D11*
G04 #@! TO.C,C1*
G36*
X20697468Y-42765397D02*
X20718703Y-42768547D01*
X20739527Y-42773763D01*
X20759739Y-42780995D01*
X20779145Y-42790174D01*
X20797558Y-42801210D01*
X20814801Y-42813998D01*
X20830707Y-42828414D01*
X20845123Y-42844320D01*
X20857911Y-42861563D01*
X20868947Y-42879976D01*
X20878126Y-42899382D01*
X20885358Y-42919594D01*
X20890574Y-42940418D01*
X20893724Y-42961653D01*
X20894777Y-42983094D01*
X20894777Y-43420594D01*
X20893724Y-43442035D01*
X20890574Y-43463270D01*
X20885358Y-43484094D01*
X20878126Y-43504306D01*
X20868947Y-43523712D01*
X20857911Y-43542125D01*
X20845123Y-43559368D01*
X20830707Y-43575274D01*
X20814801Y-43589690D01*
X20797558Y-43602478D01*
X20779145Y-43613514D01*
X20759739Y-43622693D01*
X20739527Y-43629925D01*
X20718703Y-43635141D01*
X20697468Y-43638291D01*
X20676027Y-43639344D01*
X20163527Y-43639344D01*
X20142086Y-43638291D01*
X20120851Y-43635141D01*
X20100027Y-43629925D01*
X20079815Y-43622693D01*
X20060409Y-43613514D01*
X20041996Y-43602478D01*
X20024753Y-43589690D01*
X20008847Y-43575274D01*
X19994431Y-43559368D01*
X19981643Y-43542125D01*
X19970607Y-43523712D01*
X19961428Y-43504306D01*
X19954196Y-43484094D01*
X19948980Y-43463270D01*
X19945830Y-43442035D01*
X19944777Y-43420594D01*
X19944777Y-42983094D01*
X19945830Y-42961653D01*
X19948980Y-42940418D01*
X19954196Y-42919594D01*
X19961428Y-42899382D01*
X19970607Y-42879976D01*
X19981643Y-42861563D01*
X19994431Y-42844320D01*
X20008847Y-42828414D01*
X20024753Y-42813998D01*
X20041996Y-42801210D01*
X20060409Y-42790174D01*
X20079815Y-42780995D01*
X20100027Y-42773763D01*
X20120851Y-42768547D01*
X20142086Y-42765397D01*
X20163527Y-42764344D01*
X20676027Y-42764344D01*
X20697468Y-42765397D01*
X20697468Y-42765397D01*
G37*
D12*
X20419777Y-43201844D03*
D11*
G36*
X20697468Y-41190397D02*
X20718703Y-41193547D01*
X20739527Y-41198763D01*
X20759739Y-41205995D01*
X20779145Y-41215174D01*
X20797558Y-41226210D01*
X20814801Y-41238998D01*
X20830707Y-41253414D01*
X20845123Y-41269320D01*
X20857911Y-41286563D01*
X20868947Y-41304976D01*
X20878126Y-41324382D01*
X20885358Y-41344594D01*
X20890574Y-41365418D01*
X20893724Y-41386653D01*
X20894777Y-41408094D01*
X20894777Y-41845594D01*
X20893724Y-41867035D01*
X20890574Y-41888270D01*
X20885358Y-41909094D01*
X20878126Y-41929306D01*
X20868947Y-41948712D01*
X20857911Y-41967125D01*
X20845123Y-41984368D01*
X20830707Y-42000274D01*
X20814801Y-42014690D01*
X20797558Y-42027478D01*
X20779145Y-42038514D01*
X20759739Y-42047693D01*
X20739527Y-42054925D01*
X20718703Y-42060141D01*
X20697468Y-42063291D01*
X20676027Y-42064344D01*
X20163527Y-42064344D01*
X20142086Y-42063291D01*
X20120851Y-42060141D01*
X20100027Y-42054925D01*
X20079815Y-42047693D01*
X20060409Y-42038514D01*
X20041996Y-42027478D01*
X20024753Y-42014690D01*
X20008847Y-42000274D01*
X19994431Y-41984368D01*
X19981643Y-41967125D01*
X19970607Y-41948712D01*
X19961428Y-41929306D01*
X19954196Y-41909094D01*
X19948980Y-41888270D01*
X19945830Y-41867035D01*
X19944777Y-41845594D01*
X19944777Y-41408094D01*
X19945830Y-41386653D01*
X19948980Y-41365418D01*
X19954196Y-41344594D01*
X19961428Y-41324382D01*
X19970607Y-41304976D01*
X19981643Y-41286563D01*
X19994431Y-41269320D01*
X20008847Y-41253414D01*
X20024753Y-41238998D01*
X20041996Y-41226210D01*
X20060409Y-41215174D01*
X20079815Y-41205995D01*
X20100027Y-41198763D01*
X20120851Y-41193547D01*
X20142086Y-41190397D01*
X20163527Y-41189344D01*
X20676027Y-41189344D01*
X20697468Y-41190397D01*
X20697468Y-41190397D01*
G37*
D12*
X20419777Y-41626844D03*
G04 #@! TD*
D11*
G04 #@! TO.C,C2*
G36*
X23322118Y-35626349D02*
X23343353Y-35629499D01*
X23364177Y-35634715D01*
X23384389Y-35641947D01*
X23403795Y-35651126D01*
X23422208Y-35662162D01*
X23439451Y-35674950D01*
X23455357Y-35689366D01*
X23469773Y-35705272D01*
X23482561Y-35722515D01*
X23493597Y-35740928D01*
X23502776Y-35760334D01*
X23510008Y-35780546D01*
X23515224Y-35801370D01*
X23518374Y-35822605D01*
X23519427Y-35844046D01*
X23519427Y-36281546D01*
X23518374Y-36302987D01*
X23515224Y-36324222D01*
X23510008Y-36345046D01*
X23502776Y-36365258D01*
X23493597Y-36384664D01*
X23482561Y-36403077D01*
X23469773Y-36420320D01*
X23455357Y-36436226D01*
X23439451Y-36450642D01*
X23422208Y-36463430D01*
X23403795Y-36474466D01*
X23384389Y-36483645D01*
X23364177Y-36490877D01*
X23343353Y-36496093D01*
X23322118Y-36499243D01*
X23300677Y-36500296D01*
X22788177Y-36500296D01*
X22766736Y-36499243D01*
X22745501Y-36496093D01*
X22724677Y-36490877D01*
X22704465Y-36483645D01*
X22685059Y-36474466D01*
X22666646Y-36463430D01*
X22649403Y-36450642D01*
X22633497Y-36436226D01*
X22619081Y-36420320D01*
X22606293Y-36403077D01*
X22595257Y-36384664D01*
X22586078Y-36365258D01*
X22578846Y-36345046D01*
X22573630Y-36324222D01*
X22570480Y-36302987D01*
X22569427Y-36281546D01*
X22569427Y-35844046D01*
X22570480Y-35822605D01*
X22573630Y-35801370D01*
X22578846Y-35780546D01*
X22586078Y-35760334D01*
X22595257Y-35740928D01*
X22606293Y-35722515D01*
X22619081Y-35705272D01*
X22633497Y-35689366D01*
X22649403Y-35674950D01*
X22666646Y-35662162D01*
X22685059Y-35651126D01*
X22704465Y-35641947D01*
X22724677Y-35634715D01*
X22745501Y-35629499D01*
X22766736Y-35626349D01*
X22788177Y-35625296D01*
X23300677Y-35625296D01*
X23322118Y-35626349D01*
X23322118Y-35626349D01*
G37*
D12*
X23044427Y-36062796D03*
D11*
G36*
X23322118Y-34051349D02*
X23343353Y-34054499D01*
X23364177Y-34059715D01*
X23384389Y-34066947D01*
X23403795Y-34076126D01*
X23422208Y-34087162D01*
X23439451Y-34099950D01*
X23455357Y-34114366D01*
X23469773Y-34130272D01*
X23482561Y-34147515D01*
X23493597Y-34165928D01*
X23502776Y-34185334D01*
X23510008Y-34205546D01*
X23515224Y-34226370D01*
X23518374Y-34247605D01*
X23519427Y-34269046D01*
X23519427Y-34706546D01*
X23518374Y-34727987D01*
X23515224Y-34749222D01*
X23510008Y-34770046D01*
X23502776Y-34790258D01*
X23493597Y-34809664D01*
X23482561Y-34828077D01*
X23469773Y-34845320D01*
X23455357Y-34861226D01*
X23439451Y-34875642D01*
X23422208Y-34888430D01*
X23403795Y-34899466D01*
X23384389Y-34908645D01*
X23364177Y-34915877D01*
X23343353Y-34921093D01*
X23322118Y-34924243D01*
X23300677Y-34925296D01*
X22788177Y-34925296D01*
X22766736Y-34924243D01*
X22745501Y-34921093D01*
X22724677Y-34915877D01*
X22704465Y-34908645D01*
X22685059Y-34899466D01*
X22666646Y-34888430D01*
X22649403Y-34875642D01*
X22633497Y-34861226D01*
X22619081Y-34845320D01*
X22606293Y-34828077D01*
X22595257Y-34809664D01*
X22586078Y-34790258D01*
X22578846Y-34770046D01*
X22573630Y-34749222D01*
X22570480Y-34727987D01*
X22569427Y-34706546D01*
X22569427Y-34269046D01*
X22570480Y-34247605D01*
X22573630Y-34226370D01*
X22578846Y-34205546D01*
X22586078Y-34185334D01*
X22595257Y-34165928D01*
X22606293Y-34147515D01*
X22619081Y-34130272D01*
X22633497Y-34114366D01*
X22649403Y-34099950D01*
X22666646Y-34087162D01*
X22685059Y-34076126D01*
X22704465Y-34066947D01*
X22724677Y-34059715D01*
X22745501Y-34054499D01*
X22766736Y-34051349D01*
X22788177Y-34050296D01*
X23300677Y-34050296D01*
X23322118Y-34051349D01*
X23322118Y-34051349D01*
G37*
D12*
X23044427Y-34487796D03*
G04 #@! TD*
D11*
G04 #@! TO.C,C3*
G36*
X28429037Y-31756755D02*
X28450272Y-31759905D01*
X28471096Y-31765121D01*
X28491308Y-31772353D01*
X28510714Y-31781532D01*
X28529127Y-31792568D01*
X28546370Y-31805356D01*
X28562276Y-31819772D01*
X28576692Y-31835678D01*
X28589480Y-31852921D01*
X28600516Y-31871334D01*
X28609695Y-31890740D01*
X28616927Y-31910952D01*
X28622143Y-31931776D01*
X28625293Y-31953011D01*
X28626346Y-31974452D01*
X28626346Y-32486952D01*
X28625293Y-32508393D01*
X28622143Y-32529628D01*
X28616927Y-32550452D01*
X28609695Y-32570664D01*
X28600516Y-32590070D01*
X28589480Y-32608483D01*
X28576692Y-32625726D01*
X28562276Y-32641632D01*
X28546370Y-32656048D01*
X28529127Y-32668836D01*
X28510714Y-32679872D01*
X28491308Y-32689051D01*
X28471096Y-32696283D01*
X28450272Y-32701499D01*
X28429037Y-32704649D01*
X28407596Y-32705702D01*
X27970096Y-32705702D01*
X27948655Y-32704649D01*
X27927420Y-32701499D01*
X27906596Y-32696283D01*
X27886384Y-32689051D01*
X27866978Y-32679872D01*
X27848565Y-32668836D01*
X27831322Y-32656048D01*
X27815416Y-32641632D01*
X27801000Y-32625726D01*
X27788212Y-32608483D01*
X27777176Y-32590070D01*
X27767997Y-32570664D01*
X27760765Y-32550452D01*
X27755549Y-32529628D01*
X27752399Y-32508393D01*
X27751346Y-32486952D01*
X27751346Y-31974452D01*
X27752399Y-31953011D01*
X27755549Y-31931776D01*
X27760765Y-31910952D01*
X27767997Y-31890740D01*
X27777176Y-31871334D01*
X27788212Y-31852921D01*
X27801000Y-31835678D01*
X27815416Y-31819772D01*
X27831322Y-31805356D01*
X27848565Y-31792568D01*
X27866978Y-31781532D01*
X27886384Y-31772353D01*
X27906596Y-31765121D01*
X27927420Y-31759905D01*
X27948655Y-31756755D01*
X27970096Y-31755702D01*
X28407596Y-31755702D01*
X28429037Y-31756755D01*
X28429037Y-31756755D01*
G37*
D12*
X28188846Y-32230702D03*
D11*
G36*
X26854037Y-31756755D02*
X26875272Y-31759905D01*
X26896096Y-31765121D01*
X26916308Y-31772353D01*
X26935714Y-31781532D01*
X26954127Y-31792568D01*
X26971370Y-31805356D01*
X26987276Y-31819772D01*
X27001692Y-31835678D01*
X27014480Y-31852921D01*
X27025516Y-31871334D01*
X27034695Y-31890740D01*
X27041927Y-31910952D01*
X27047143Y-31931776D01*
X27050293Y-31953011D01*
X27051346Y-31974452D01*
X27051346Y-32486952D01*
X27050293Y-32508393D01*
X27047143Y-32529628D01*
X27041927Y-32550452D01*
X27034695Y-32570664D01*
X27025516Y-32590070D01*
X27014480Y-32608483D01*
X27001692Y-32625726D01*
X26987276Y-32641632D01*
X26971370Y-32656048D01*
X26954127Y-32668836D01*
X26935714Y-32679872D01*
X26916308Y-32689051D01*
X26896096Y-32696283D01*
X26875272Y-32701499D01*
X26854037Y-32704649D01*
X26832596Y-32705702D01*
X26395096Y-32705702D01*
X26373655Y-32704649D01*
X26352420Y-32701499D01*
X26331596Y-32696283D01*
X26311384Y-32689051D01*
X26291978Y-32679872D01*
X26273565Y-32668836D01*
X26256322Y-32656048D01*
X26240416Y-32641632D01*
X26226000Y-32625726D01*
X26213212Y-32608483D01*
X26202176Y-32590070D01*
X26192997Y-32570664D01*
X26185765Y-32550452D01*
X26180549Y-32529628D01*
X26177399Y-32508393D01*
X26176346Y-32486952D01*
X26176346Y-31974452D01*
X26177399Y-31953011D01*
X26180549Y-31931776D01*
X26185765Y-31910952D01*
X26192997Y-31890740D01*
X26202176Y-31871334D01*
X26213212Y-31852921D01*
X26226000Y-31835678D01*
X26240416Y-31819772D01*
X26256322Y-31805356D01*
X26273565Y-31792568D01*
X26291978Y-31781532D01*
X26311384Y-31772353D01*
X26331596Y-31765121D01*
X26352420Y-31759905D01*
X26373655Y-31756755D01*
X26395096Y-31755702D01*
X26832596Y-31755702D01*
X26854037Y-31756755D01*
X26854037Y-31756755D01*
G37*
D12*
X26613846Y-32230702D03*
G04 #@! TD*
D11*
G04 #@! TO.C,C4*
G36*
X20749961Y-37830845D02*
X20771196Y-37833995D01*
X20792020Y-37839211D01*
X20812232Y-37846443D01*
X20831638Y-37855622D01*
X20850051Y-37866658D01*
X20867294Y-37879446D01*
X20883200Y-37893862D01*
X20897616Y-37909768D01*
X20910404Y-37927011D01*
X20921440Y-37945424D01*
X20930619Y-37964830D01*
X20937851Y-37985042D01*
X20943067Y-38005866D01*
X20946217Y-38027101D01*
X20947270Y-38048542D01*
X20947270Y-38486042D01*
X20946217Y-38507483D01*
X20943067Y-38528718D01*
X20937851Y-38549542D01*
X20930619Y-38569754D01*
X20921440Y-38589160D01*
X20910404Y-38607573D01*
X20897616Y-38624816D01*
X20883200Y-38640722D01*
X20867294Y-38655138D01*
X20850051Y-38667926D01*
X20831638Y-38678962D01*
X20812232Y-38688141D01*
X20792020Y-38695373D01*
X20771196Y-38700589D01*
X20749961Y-38703739D01*
X20728520Y-38704792D01*
X20216020Y-38704792D01*
X20194579Y-38703739D01*
X20173344Y-38700589D01*
X20152520Y-38695373D01*
X20132308Y-38688141D01*
X20112902Y-38678962D01*
X20094489Y-38667926D01*
X20077246Y-38655138D01*
X20061340Y-38640722D01*
X20046924Y-38624816D01*
X20034136Y-38607573D01*
X20023100Y-38589160D01*
X20013921Y-38569754D01*
X20006689Y-38549542D01*
X20001473Y-38528718D01*
X19998323Y-38507483D01*
X19997270Y-38486042D01*
X19997270Y-38048542D01*
X19998323Y-38027101D01*
X20001473Y-38005866D01*
X20006689Y-37985042D01*
X20013921Y-37964830D01*
X20023100Y-37945424D01*
X20034136Y-37927011D01*
X20046924Y-37909768D01*
X20061340Y-37893862D01*
X20077246Y-37879446D01*
X20094489Y-37866658D01*
X20112902Y-37855622D01*
X20132308Y-37846443D01*
X20152520Y-37839211D01*
X20173344Y-37833995D01*
X20194579Y-37830845D01*
X20216020Y-37829792D01*
X20728520Y-37829792D01*
X20749961Y-37830845D01*
X20749961Y-37830845D01*
G37*
D12*
X20472270Y-38267292D03*
D11*
G36*
X20749961Y-39405845D02*
X20771196Y-39408995D01*
X20792020Y-39414211D01*
X20812232Y-39421443D01*
X20831638Y-39430622D01*
X20850051Y-39441658D01*
X20867294Y-39454446D01*
X20883200Y-39468862D01*
X20897616Y-39484768D01*
X20910404Y-39502011D01*
X20921440Y-39520424D01*
X20930619Y-39539830D01*
X20937851Y-39560042D01*
X20943067Y-39580866D01*
X20946217Y-39602101D01*
X20947270Y-39623542D01*
X20947270Y-40061042D01*
X20946217Y-40082483D01*
X20943067Y-40103718D01*
X20937851Y-40124542D01*
X20930619Y-40144754D01*
X20921440Y-40164160D01*
X20910404Y-40182573D01*
X20897616Y-40199816D01*
X20883200Y-40215722D01*
X20867294Y-40230138D01*
X20850051Y-40242926D01*
X20831638Y-40253962D01*
X20812232Y-40263141D01*
X20792020Y-40270373D01*
X20771196Y-40275589D01*
X20749961Y-40278739D01*
X20728520Y-40279792D01*
X20216020Y-40279792D01*
X20194579Y-40278739D01*
X20173344Y-40275589D01*
X20152520Y-40270373D01*
X20132308Y-40263141D01*
X20112902Y-40253962D01*
X20094489Y-40242926D01*
X20077246Y-40230138D01*
X20061340Y-40215722D01*
X20046924Y-40199816D01*
X20034136Y-40182573D01*
X20023100Y-40164160D01*
X20013921Y-40144754D01*
X20006689Y-40124542D01*
X20001473Y-40103718D01*
X19998323Y-40082483D01*
X19997270Y-40061042D01*
X19997270Y-39623542D01*
X19998323Y-39602101D01*
X20001473Y-39580866D01*
X20006689Y-39560042D01*
X20013921Y-39539830D01*
X20023100Y-39520424D01*
X20034136Y-39502011D01*
X20046924Y-39484768D01*
X20061340Y-39468862D01*
X20077246Y-39454446D01*
X20094489Y-39441658D01*
X20112902Y-39430622D01*
X20132308Y-39421443D01*
X20152520Y-39414211D01*
X20173344Y-39408995D01*
X20194579Y-39405845D01*
X20216020Y-39404792D01*
X20728520Y-39404792D01*
X20749961Y-39405845D01*
X20749961Y-39405845D01*
G37*
D12*
X20472270Y-39842292D03*
G04 #@! TD*
D11*
G04 #@! TO.C,C5*
G36*
X23164639Y-37253422D02*
X23185874Y-37256572D01*
X23206698Y-37261788D01*
X23226910Y-37269020D01*
X23246316Y-37278199D01*
X23264729Y-37289235D01*
X23281972Y-37302023D01*
X23297878Y-37316439D01*
X23312294Y-37332345D01*
X23325082Y-37349588D01*
X23336118Y-37368001D01*
X23345297Y-37387407D01*
X23352529Y-37407619D01*
X23357745Y-37428443D01*
X23360895Y-37449678D01*
X23361948Y-37471119D01*
X23361948Y-37908619D01*
X23360895Y-37930060D01*
X23357745Y-37951295D01*
X23352529Y-37972119D01*
X23345297Y-37992331D01*
X23336118Y-38011737D01*
X23325082Y-38030150D01*
X23312294Y-38047393D01*
X23297878Y-38063299D01*
X23281972Y-38077715D01*
X23264729Y-38090503D01*
X23246316Y-38101539D01*
X23226910Y-38110718D01*
X23206698Y-38117950D01*
X23185874Y-38123166D01*
X23164639Y-38126316D01*
X23143198Y-38127369D01*
X22630698Y-38127369D01*
X22609257Y-38126316D01*
X22588022Y-38123166D01*
X22567198Y-38117950D01*
X22546986Y-38110718D01*
X22527580Y-38101539D01*
X22509167Y-38090503D01*
X22491924Y-38077715D01*
X22476018Y-38063299D01*
X22461602Y-38047393D01*
X22448814Y-38030150D01*
X22437778Y-38011737D01*
X22428599Y-37992331D01*
X22421367Y-37972119D01*
X22416151Y-37951295D01*
X22413001Y-37930060D01*
X22411948Y-37908619D01*
X22411948Y-37471119D01*
X22413001Y-37449678D01*
X22416151Y-37428443D01*
X22421367Y-37407619D01*
X22428599Y-37387407D01*
X22437778Y-37368001D01*
X22448814Y-37349588D01*
X22461602Y-37332345D01*
X22476018Y-37316439D01*
X22491924Y-37302023D01*
X22509167Y-37289235D01*
X22527580Y-37278199D01*
X22546986Y-37269020D01*
X22567198Y-37261788D01*
X22588022Y-37256572D01*
X22609257Y-37253422D01*
X22630698Y-37252369D01*
X23143198Y-37252369D01*
X23164639Y-37253422D01*
X23164639Y-37253422D01*
G37*
D12*
X22886948Y-37689869D03*
D11*
G36*
X23164639Y-38828422D02*
X23185874Y-38831572D01*
X23206698Y-38836788D01*
X23226910Y-38844020D01*
X23246316Y-38853199D01*
X23264729Y-38864235D01*
X23281972Y-38877023D01*
X23297878Y-38891439D01*
X23312294Y-38907345D01*
X23325082Y-38924588D01*
X23336118Y-38943001D01*
X23345297Y-38962407D01*
X23352529Y-38982619D01*
X23357745Y-39003443D01*
X23360895Y-39024678D01*
X23361948Y-39046119D01*
X23361948Y-39483619D01*
X23360895Y-39505060D01*
X23357745Y-39526295D01*
X23352529Y-39547119D01*
X23345297Y-39567331D01*
X23336118Y-39586737D01*
X23325082Y-39605150D01*
X23312294Y-39622393D01*
X23297878Y-39638299D01*
X23281972Y-39652715D01*
X23264729Y-39665503D01*
X23246316Y-39676539D01*
X23226910Y-39685718D01*
X23206698Y-39692950D01*
X23185874Y-39698166D01*
X23164639Y-39701316D01*
X23143198Y-39702369D01*
X22630698Y-39702369D01*
X22609257Y-39701316D01*
X22588022Y-39698166D01*
X22567198Y-39692950D01*
X22546986Y-39685718D01*
X22527580Y-39676539D01*
X22509167Y-39665503D01*
X22491924Y-39652715D01*
X22476018Y-39638299D01*
X22461602Y-39622393D01*
X22448814Y-39605150D01*
X22437778Y-39586737D01*
X22428599Y-39567331D01*
X22421367Y-39547119D01*
X22416151Y-39526295D01*
X22413001Y-39505060D01*
X22411948Y-39483619D01*
X22411948Y-39046119D01*
X22413001Y-39024678D01*
X22416151Y-39003443D01*
X22421367Y-38982619D01*
X22428599Y-38962407D01*
X22437778Y-38943001D01*
X22448814Y-38924588D01*
X22461602Y-38907345D01*
X22476018Y-38891439D01*
X22491924Y-38877023D01*
X22509167Y-38864235D01*
X22527580Y-38853199D01*
X22546986Y-38844020D01*
X22567198Y-38836788D01*
X22588022Y-38831572D01*
X22609257Y-38828422D01*
X22630698Y-38827369D01*
X23143198Y-38827369D01*
X23164639Y-38828422D01*
X23164639Y-38828422D01*
G37*
D12*
X22886948Y-39264869D03*
G04 #@! TD*
D11*
G04 #@! TO.C,C6*
G36*
X32313309Y-41153002D02*
X32334544Y-41156152D01*
X32355368Y-41161368D01*
X32375580Y-41168600D01*
X32394986Y-41177779D01*
X32413399Y-41188815D01*
X32430642Y-41201603D01*
X32446548Y-41216019D01*
X32460964Y-41231925D01*
X32473752Y-41249168D01*
X32484788Y-41267581D01*
X32493967Y-41286987D01*
X32501199Y-41307199D01*
X32506415Y-41328023D01*
X32509565Y-41349258D01*
X32510618Y-41370699D01*
X32510618Y-41883199D01*
X32509565Y-41904640D01*
X32506415Y-41925875D01*
X32501199Y-41946699D01*
X32493967Y-41966911D01*
X32484788Y-41986317D01*
X32473752Y-42004730D01*
X32460964Y-42021973D01*
X32446548Y-42037879D01*
X32430642Y-42052295D01*
X32413399Y-42065083D01*
X32394986Y-42076119D01*
X32375580Y-42085298D01*
X32355368Y-42092530D01*
X32334544Y-42097746D01*
X32313309Y-42100896D01*
X32291868Y-42101949D01*
X31854368Y-42101949D01*
X31832927Y-42100896D01*
X31811692Y-42097746D01*
X31790868Y-42092530D01*
X31770656Y-42085298D01*
X31751250Y-42076119D01*
X31732837Y-42065083D01*
X31715594Y-42052295D01*
X31699688Y-42037879D01*
X31685272Y-42021973D01*
X31672484Y-42004730D01*
X31661448Y-41986317D01*
X31652269Y-41966911D01*
X31645037Y-41946699D01*
X31639821Y-41925875D01*
X31636671Y-41904640D01*
X31635618Y-41883199D01*
X31635618Y-41370699D01*
X31636671Y-41349258D01*
X31639821Y-41328023D01*
X31645037Y-41307199D01*
X31652269Y-41286987D01*
X31661448Y-41267581D01*
X31672484Y-41249168D01*
X31685272Y-41231925D01*
X31699688Y-41216019D01*
X31715594Y-41201603D01*
X31732837Y-41188815D01*
X31751250Y-41177779D01*
X31770656Y-41168600D01*
X31790868Y-41161368D01*
X31811692Y-41156152D01*
X31832927Y-41153002D01*
X31854368Y-41151949D01*
X32291868Y-41151949D01*
X32313309Y-41153002D01*
X32313309Y-41153002D01*
G37*
D12*
X32073118Y-41626949D03*
D11*
G36*
X33888309Y-41153002D02*
X33909544Y-41156152D01*
X33930368Y-41161368D01*
X33950580Y-41168600D01*
X33969986Y-41177779D01*
X33988399Y-41188815D01*
X34005642Y-41201603D01*
X34021548Y-41216019D01*
X34035964Y-41231925D01*
X34048752Y-41249168D01*
X34059788Y-41267581D01*
X34068967Y-41286987D01*
X34076199Y-41307199D01*
X34081415Y-41328023D01*
X34084565Y-41349258D01*
X34085618Y-41370699D01*
X34085618Y-41883199D01*
X34084565Y-41904640D01*
X34081415Y-41925875D01*
X34076199Y-41946699D01*
X34068967Y-41966911D01*
X34059788Y-41986317D01*
X34048752Y-42004730D01*
X34035964Y-42021973D01*
X34021548Y-42037879D01*
X34005642Y-42052295D01*
X33988399Y-42065083D01*
X33969986Y-42076119D01*
X33950580Y-42085298D01*
X33930368Y-42092530D01*
X33909544Y-42097746D01*
X33888309Y-42100896D01*
X33866868Y-42101949D01*
X33429368Y-42101949D01*
X33407927Y-42100896D01*
X33386692Y-42097746D01*
X33365868Y-42092530D01*
X33345656Y-42085298D01*
X33326250Y-42076119D01*
X33307837Y-42065083D01*
X33290594Y-42052295D01*
X33274688Y-42037879D01*
X33260272Y-42021973D01*
X33247484Y-42004730D01*
X33236448Y-41986317D01*
X33227269Y-41966911D01*
X33220037Y-41946699D01*
X33214821Y-41925875D01*
X33211671Y-41904640D01*
X33210618Y-41883199D01*
X33210618Y-41370699D01*
X33211671Y-41349258D01*
X33214821Y-41328023D01*
X33220037Y-41307199D01*
X33227269Y-41286987D01*
X33236448Y-41267581D01*
X33247484Y-41249168D01*
X33260272Y-41231925D01*
X33274688Y-41216019D01*
X33290594Y-41201603D01*
X33307837Y-41188815D01*
X33326250Y-41177779D01*
X33345656Y-41168600D01*
X33365868Y-41161368D01*
X33386692Y-41156152D01*
X33407927Y-41153002D01*
X33429368Y-41151949D01*
X33866868Y-41151949D01*
X33888309Y-41153002D01*
X33888309Y-41153002D01*
G37*
D12*
X33648118Y-41626949D03*
G04 #@! TD*
D11*
G04 #@! TO.C,C7*
G36*
X33205900Y-48029585D02*
X33227135Y-48032735D01*
X33247959Y-48037951D01*
X33268171Y-48045183D01*
X33287577Y-48054362D01*
X33305990Y-48065398D01*
X33323233Y-48078186D01*
X33339139Y-48092602D01*
X33353555Y-48108508D01*
X33366343Y-48125751D01*
X33377379Y-48144164D01*
X33386558Y-48163570D01*
X33393790Y-48183782D01*
X33399006Y-48204606D01*
X33402156Y-48225841D01*
X33403209Y-48247282D01*
X33403209Y-48759782D01*
X33402156Y-48781223D01*
X33399006Y-48802458D01*
X33393790Y-48823282D01*
X33386558Y-48843494D01*
X33377379Y-48862900D01*
X33366343Y-48881313D01*
X33353555Y-48898556D01*
X33339139Y-48914462D01*
X33323233Y-48928878D01*
X33305990Y-48941666D01*
X33287577Y-48952702D01*
X33268171Y-48961881D01*
X33247959Y-48969113D01*
X33227135Y-48974329D01*
X33205900Y-48977479D01*
X33184459Y-48978532D01*
X32746959Y-48978532D01*
X32725518Y-48977479D01*
X32704283Y-48974329D01*
X32683459Y-48969113D01*
X32663247Y-48961881D01*
X32643841Y-48952702D01*
X32625428Y-48941666D01*
X32608185Y-48928878D01*
X32592279Y-48914462D01*
X32577863Y-48898556D01*
X32565075Y-48881313D01*
X32554039Y-48862900D01*
X32544860Y-48843494D01*
X32537628Y-48823282D01*
X32532412Y-48802458D01*
X32529262Y-48781223D01*
X32528209Y-48759782D01*
X32528209Y-48247282D01*
X32529262Y-48225841D01*
X32532412Y-48204606D01*
X32537628Y-48183782D01*
X32544860Y-48163570D01*
X32554039Y-48144164D01*
X32565075Y-48125751D01*
X32577863Y-48108508D01*
X32592279Y-48092602D01*
X32608185Y-48078186D01*
X32625428Y-48065398D01*
X32643841Y-48054362D01*
X32663247Y-48045183D01*
X32683459Y-48037951D01*
X32704283Y-48032735D01*
X32725518Y-48029585D01*
X32746959Y-48028532D01*
X33184459Y-48028532D01*
X33205900Y-48029585D01*
X33205900Y-48029585D01*
G37*
D12*
X32965709Y-48503532D03*
D11*
G36*
X31630900Y-48029585D02*
X31652135Y-48032735D01*
X31672959Y-48037951D01*
X31693171Y-48045183D01*
X31712577Y-48054362D01*
X31730990Y-48065398D01*
X31748233Y-48078186D01*
X31764139Y-48092602D01*
X31778555Y-48108508D01*
X31791343Y-48125751D01*
X31802379Y-48144164D01*
X31811558Y-48163570D01*
X31818790Y-48183782D01*
X31824006Y-48204606D01*
X31827156Y-48225841D01*
X31828209Y-48247282D01*
X31828209Y-48759782D01*
X31827156Y-48781223D01*
X31824006Y-48802458D01*
X31818790Y-48823282D01*
X31811558Y-48843494D01*
X31802379Y-48862900D01*
X31791343Y-48881313D01*
X31778555Y-48898556D01*
X31764139Y-48914462D01*
X31748233Y-48928878D01*
X31730990Y-48941666D01*
X31712577Y-48952702D01*
X31693171Y-48961881D01*
X31672959Y-48969113D01*
X31652135Y-48974329D01*
X31630900Y-48977479D01*
X31609459Y-48978532D01*
X31171959Y-48978532D01*
X31150518Y-48977479D01*
X31129283Y-48974329D01*
X31108459Y-48969113D01*
X31088247Y-48961881D01*
X31068841Y-48952702D01*
X31050428Y-48941666D01*
X31033185Y-48928878D01*
X31017279Y-48914462D01*
X31002863Y-48898556D01*
X30990075Y-48881313D01*
X30979039Y-48862900D01*
X30969860Y-48843494D01*
X30962628Y-48823282D01*
X30957412Y-48802458D01*
X30954262Y-48781223D01*
X30953209Y-48759782D01*
X30953209Y-48247282D01*
X30954262Y-48225841D01*
X30957412Y-48204606D01*
X30962628Y-48183782D01*
X30969860Y-48163570D01*
X30979039Y-48144164D01*
X30990075Y-48125751D01*
X31002863Y-48108508D01*
X31017279Y-48092602D01*
X31033185Y-48078186D01*
X31050428Y-48065398D01*
X31068841Y-48054362D01*
X31088247Y-48045183D01*
X31108459Y-48037951D01*
X31129283Y-48032735D01*
X31150518Y-48029585D01*
X31171959Y-48028532D01*
X31609459Y-48028532D01*
X31630900Y-48029585D01*
X31630900Y-48029585D01*
G37*
D12*
X31390709Y-48503532D03*
G04 #@! TD*
D11*
G04 #@! TO.C,C8*
G36*
X23022048Y-49761854D02*
X23043283Y-49765004D01*
X23064107Y-49770220D01*
X23084319Y-49777452D01*
X23103725Y-49786631D01*
X23122138Y-49797667D01*
X23139381Y-49810455D01*
X23155287Y-49824871D01*
X23169703Y-49840777D01*
X23182491Y-49858020D01*
X23193527Y-49876433D01*
X23202706Y-49895839D01*
X23209938Y-49916051D01*
X23215154Y-49936875D01*
X23218304Y-49958110D01*
X23219357Y-49979551D01*
X23219357Y-50492051D01*
X23218304Y-50513492D01*
X23215154Y-50534727D01*
X23209938Y-50555551D01*
X23202706Y-50575763D01*
X23193527Y-50595169D01*
X23182491Y-50613582D01*
X23169703Y-50630825D01*
X23155287Y-50646731D01*
X23139381Y-50661147D01*
X23122138Y-50673935D01*
X23103725Y-50684971D01*
X23084319Y-50694150D01*
X23064107Y-50701382D01*
X23043283Y-50706598D01*
X23022048Y-50709748D01*
X23000607Y-50710801D01*
X22563107Y-50710801D01*
X22541666Y-50709748D01*
X22520431Y-50706598D01*
X22499607Y-50701382D01*
X22479395Y-50694150D01*
X22459989Y-50684971D01*
X22441576Y-50673935D01*
X22424333Y-50661147D01*
X22408427Y-50646731D01*
X22394011Y-50630825D01*
X22381223Y-50613582D01*
X22370187Y-50595169D01*
X22361008Y-50575763D01*
X22353776Y-50555551D01*
X22348560Y-50534727D01*
X22345410Y-50513492D01*
X22344357Y-50492051D01*
X22344357Y-49979551D01*
X22345410Y-49958110D01*
X22348560Y-49936875D01*
X22353776Y-49916051D01*
X22361008Y-49895839D01*
X22370187Y-49876433D01*
X22381223Y-49858020D01*
X22394011Y-49840777D01*
X22408427Y-49824871D01*
X22424333Y-49810455D01*
X22441576Y-49797667D01*
X22459989Y-49786631D01*
X22479395Y-49777452D01*
X22499607Y-49770220D01*
X22520431Y-49765004D01*
X22541666Y-49761854D01*
X22563107Y-49760801D01*
X23000607Y-49760801D01*
X23022048Y-49761854D01*
X23022048Y-49761854D01*
G37*
D12*
X22781857Y-50235801D03*
D11*
G36*
X24597048Y-49761854D02*
X24618283Y-49765004D01*
X24639107Y-49770220D01*
X24659319Y-49777452D01*
X24678725Y-49786631D01*
X24697138Y-49797667D01*
X24714381Y-49810455D01*
X24730287Y-49824871D01*
X24744703Y-49840777D01*
X24757491Y-49858020D01*
X24768527Y-49876433D01*
X24777706Y-49895839D01*
X24784938Y-49916051D01*
X24790154Y-49936875D01*
X24793304Y-49958110D01*
X24794357Y-49979551D01*
X24794357Y-50492051D01*
X24793304Y-50513492D01*
X24790154Y-50534727D01*
X24784938Y-50555551D01*
X24777706Y-50575763D01*
X24768527Y-50595169D01*
X24757491Y-50613582D01*
X24744703Y-50630825D01*
X24730287Y-50646731D01*
X24714381Y-50661147D01*
X24697138Y-50673935D01*
X24678725Y-50684971D01*
X24659319Y-50694150D01*
X24639107Y-50701382D01*
X24618283Y-50706598D01*
X24597048Y-50709748D01*
X24575607Y-50710801D01*
X24138107Y-50710801D01*
X24116666Y-50709748D01*
X24095431Y-50706598D01*
X24074607Y-50701382D01*
X24054395Y-50694150D01*
X24034989Y-50684971D01*
X24016576Y-50673935D01*
X23999333Y-50661147D01*
X23983427Y-50646731D01*
X23969011Y-50630825D01*
X23956223Y-50613582D01*
X23945187Y-50595169D01*
X23936008Y-50575763D01*
X23928776Y-50555551D01*
X23923560Y-50534727D01*
X23920410Y-50513492D01*
X23919357Y-50492051D01*
X23919357Y-49979551D01*
X23920410Y-49958110D01*
X23923560Y-49936875D01*
X23928776Y-49916051D01*
X23936008Y-49895839D01*
X23945187Y-49876433D01*
X23956223Y-49858020D01*
X23969011Y-49840777D01*
X23983427Y-49824871D01*
X23999333Y-49810455D01*
X24016576Y-49797667D01*
X24034989Y-49786631D01*
X24054395Y-49777452D01*
X24074607Y-49770220D01*
X24095431Y-49765004D01*
X24116666Y-49761854D01*
X24138107Y-49760801D01*
X24575607Y-49760801D01*
X24597048Y-49761854D01*
X24597048Y-49761854D01*
G37*
D12*
X24356857Y-50235801D03*
G04 #@! TD*
D11*
G04 #@! TO.C,C9*
G36*
X294201096Y-40523086D02*
X294222331Y-40526236D01*
X294243155Y-40531452D01*
X294263367Y-40538684D01*
X294282773Y-40547863D01*
X294301186Y-40558899D01*
X294318429Y-40571687D01*
X294334335Y-40586103D01*
X294348751Y-40602009D01*
X294361539Y-40619252D01*
X294372575Y-40637665D01*
X294381754Y-40657071D01*
X294388986Y-40677283D01*
X294394202Y-40698107D01*
X294397352Y-40719342D01*
X294398405Y-40740783D01*
X294398405Y-41253283D01*
X294397352Y-41274724D01*
X294394202Y-41295959D01*
X294388986Y-41316783D01*
X294381754Y-41336995D01*
X294372575Y-41356401D01*
X294361539Y-41374814D01*
X294348751Y-41392057D01*
X294334335Y-41407963D01*
X294318429Y-41422379D01*
X294301186Y-41435167D01*
X294282773Y-41446203D01*
X294263367Y-41455382D01*
X294243155Y-41462614D01*
X294222331Y-41467830D01*
X294201096Y-41470980D01*
X294179655Y-41472033D01*
X293742155Y-41472033D01*
X293720714Y-41470980D01*
X293699479Y-41467830D01*
X293678655Y-41462614D01*
X293658443Y-41455382D01*
X293639037Y-41446203D01*
X293620624Y-41435167D01*
X293603381Y-41422379D01*
X293587475Y-41407963D01*
X293573059Y-41392057D01*
X293560271Y-41374814D01*
X293549235Y-41356401D01*
X293540056Y-41336995D01*
X293532824Y-41316783D01*
X293527608Y-41295959D01*
X293524458Y-41274724D01*
X293523405Y-41253283D01*
X293523405Y-40740783D01*
X293524458Y-40719342D01*
X293527608Y-40698107D01*
X293532824Y-40677283D01*
X293540056Y-40657071D01*
X293549235Y-40637665D01*
X293560271Y-40619252D01*
X293573059Y-40602009D01*
X293587475Y-40586103D01*
X293603381Y-40571687D01*
X293620624Y-40558899D01*
X293639037Y-40547863D01*
X293658443Y-40538684D01*
X293678655Y-40531452D01*
X293699479Y-40526236D01*
X293720714Y-40523086D01*
X293742155Y-40522033D01*
X294179655Y-40522033D01*
X294201096Y-40523086D01*
X294201096Y-40523086D01*
G37*
D12*
X293960905Y-40997033D03*
D11*
G36*
X292626096Y-40523086D02*
X292647331Y-40526236D01*
X292668155Y-40531452D01*
X292688367Y-40538684D01*
X292707773Y-40547863D01*
X292726186Y-40558899D01*
X292743429Y-40571687D01*
X292759335Y-40586103D01*
X292773751Y-40602009D01*
X292786539Y-40619252D01*
X292797575Y-40637665D01*
X292806754Y-40657071D01*
X292813986Y-40677283D01*
X292819202Y-40698107D01*
X292822352Y-40719342D01*
X292823405Y-40740783D01*
X292823405Y-41253283D01*
X292822352Y-41274724D01*
X292819202Y-41295959D01*
X292813986Y-41316783D01*
X292806754Y-41336995D01*
X292797575Y-41356401D01*
X292786539Y-41374814D01*
X292773751Y-41392057D01*
X292759335Y-41407963D01*
X292743429Y-41422379D01*
X292726186Y-41435167D01*
X292707773Y-41446203D01*
X292688367Y-41455382D01*
X292668155Y-41462614D01*
X292647331Y-41467830D01*
X292626096Y-41470980D01*
X292604655Y-41472033D01*
X292167155Y-41472033D01*
X292145714Y-41470980D01*
X292124479Y-41467830D01*
X292103655Y-41462614D01*
X292083443Y-41455382D01*
X292064037Y-41446203D01*
X292045624Y-41435167D01*
X292028381Y-41422379D01*
X292012475Y-41407963D01*
X291998059Y-41392057D01*
X291985271Y-41374814D01*
X291974235Y-41356401D01*
X291965056Y-41336995D01*
X291957824Y-41316783D01*
X291952608Y-41295959D01*
X291949458Y-41274724D01*
X291948405Y-41253283D01*
X291948405Y-40740783D01*
X291949458Y-40719342D01*
X291952608Y-40698107D01*
X291957824Y-40677283D01*
X291965056Y-40657071D01*
X291974235Y-40637665D01*
X291985271Y-40619252D01*
X291998059Y-40602009D01*
X292012475Y-40586103D01*
X292028381Y-40571687D01*
X292045624Y-40558899D01*
X292064037Y-40547863D01*
X292083443Y-40538684D01*
X292103655Y-40531452D01*
X292124479Y-40526236D01*
X292145714Y-40523086D01*
X292167155Y-40522033D01*
X292604655Y-40522033D01*
X292626096Y-40523086D01*
X292626096Y-40523086D01*
G37*
D12*
X292385905Y-40997033D03*
G04 #@! TD*
D11*
G04 #@! TO.C,C10*
G36*
X275618574Y-12281852D02*
X275639809Y-12285002D01*
X275660633Y-12290218D01*
X275680845Y-12297450D01*
X275700251Y-12306629D01*
X275718664Y-12317665D01*
X275735907Y-12330453D01*
X275751813Y-12344869D01*
X275766229Y-12360775D01*
X275779017Y-12378018D01*
X275790053Y-12396431D01*
X275799232Y-12415837D01*
X275806464Y-12436049D01*
X275811680Y-12456873D01*
X275814830Y-12478108D01*
X275815883Y-12499549D01*
X275815883Y-13012049D01*
X275814830Y-13033490D01*
X275811680Y-13054725D01*
X275806464Y-13075549D01*
X275799232Y-13095761D01*
X275790053Y-13115167D01*
X275779017Y-13133580D01*
X275766229Y-13150823D01*
X275751813Y-13166729D01*
X275735907Y-13181145D01*
X275718664Y-13193933D01*
X275700251Y-13204969D01*
X275680845Y-13214148D01*
X275660633Y-13221380D01*
X275639809Y-13226596D01*
X275618574Y-13229746D01*
X275597133Y-13230799D01*
X275159633Y-13230799D01*
X275138192Y-13229746D01*
X275116957Y-13226596D01*
X275096133Y-13221380D01*
X275075921Y-13214148D01*
X275056515Y-13204969D01*
X275038102Y-13193933D01*
X275020859Y-13181145D01*
X275004953Y-13166729D01*
X274990537Y-13150823D01*
X274977749Y-13133580D01*
X274966713Y-13115167D01*
X274957534Y-13095761D01*
X274950302Y-13075549D01*
X274945086Y-13054725D01*
X274941936Y-13033490D01*
X274940883Y-13012049D01*
X274940883Y-12499549D01*
X274941936Y-12478108D01*
X274945086Y-12456873D01*
X274950302Y-12436049D01*
X274957534Y-12415837D01*
X274966713Y-12396431D01*
X274977749Y-12378018D01*
X274990537Y-12360775D01*
X275004953Y-12344869D01*
X275020859Y-12330453D01*
X275038102Y-12317665D01*
X275056515Y-12306629D01*
X275075921Y-12297450D01*
X275096133Y-12290218D01*
X275116957Y-12285002D01*
X275138192Y-12281852D01*
X275159633Y-12280799D01*
X275597133Y-12280799D01*
X275618574Y-12281852D01*
X275618574Y-12281852D01*
G37*
D12*
X275378383Y-12755799D03*
D11*
G36*
X274043574Y-12281852D02*
X274064809Y-12285002D01*
X274085633Y-12290218D01*
X274105845Y-12297450D01*
X274125251Y-12306629D01*
X274143664Y-12317665D01*
X274160907Y-12330453D01*
X274176813Y-12344869D01*
X274191229Y-12360775D01*
X274204017Y-12378018D01*
X274215053Y-12396431D01*
X274224232Y-12415837D01*
X274231464Y-12436049D01*
X274236680Y-12456873D01*
X274239830Y-12478108D01*
X274240883Y-12499549D01*
X274240883Y-13012049D01*
X274239830Y-13033490D01*
X274236680Y-13054725D01*
X274231464Y-13075549D01*
X274224232Y-13095761D01*
X274215053Y-13115167D01*
X274204017Y-13133580D01*
X274191229Y-13150823D01*
X274176813Y-13166729D01*
X274160907Y-13181145D01*
X274143664Y-13193933D01*
X274125251Y-13204969D01*
X274105845Y-13214148D01*
X274085633Y-13221380D01*
X274064809Y-13226596D01*
X274043574Y-13229746D01*
X274022133Y-13230799D01*
X273584633Y-13230799D01*
X273563192Y-13229746D01*
X273541957Y-13226596D01*
X273521133Y-13221380D01*
X273500921Y-13214148D01*
X273481515Y-13204969D01*
X273463102Y-13193933D01*
X273445859Y-13181145D01*
X273429953Y-13166729D01*
X273415537Y-13150823D01*
X273402749Y-13133580D01*
X273391713Y-13115167D01*
X273382534Y-13095761D01*
X273375302Y-13075549D01*
X273370086Y-13054725D01*
X273366936Y-13033490D01*
X273365883Y-13012049D01*
X273365883Y-12499549D01*
X273366936Y-12478108D01*
X273370086Y-12456873D01*
X273375302Y-12436049D01*
X273382534Y-12415837D01*
X273391713Y-12396431D01*
X273402749Y-12378018D01*
X273415537Y-12360775D01*
X273429953Y-12344869D01*
X273445859Y-12330453D01*
X273463102Y-12317665D01*
X273481515Y-12306629D01*
X273500921Y-12297450D01*
X273521133Y-12290218D01*
X273541957Y-12285002D01*
X273563192Y-12281852D01*
X273584633Y-12280799D01*
X274022133Y-12280799D01*
X274043574Y-12281852D01*
X274043574Y-12281852D01*
G37*
D12*
X273803383Y-12755799D03*
G04 #@! TD*
D11*
G04 #@! TO.C,C11*
G36*
X224385196Y-13961628D02*
X224406431Y-13964778D01*
X224427255Y-13969994D01*
X224447467Y-13977226D01*
X224466873Y-13986405D01*
X224485286Y-13997441D01*
X224502529Y-14010229D01*
X224518435Y-14024645D01*
X224532851Y-14040551D01*
X224545639Y-14057794D01*
X224556675Y-14076207D01*
X224565854Y-14095613D01*
X224573086Y-14115825D01*
X224578302Y-14136649D01*
X224581452Y-14157884D01*
X224582505Y-14179325D01*
X224582505Y-14691825D01*
X224581452Y-14713266D01*
X224578302Y-14734501D01*
X224573086Y-14755325D01*
X224565854Y-14775537D01*
X224556675Y-14794943D01*
X224545639Y-14813356D01*
X224532851Y-14830599D01*
X224518435Y-14846505D01*
X224502529Y-14860921D01*
X224485286Y-14873709D01*
X224466873Y-14884745D01*
X224447467Y-14893924D01*
X224427255Y-14901156D01*
X224406431Y-14906372D01*
X224385196Y-14909522D01*
X224363755Y-14910575D01*
X223926255Y-14910575D01*
X223904814Y-14909522D01*
X223883579Y-14906372D01*
X223862755Y-14901156D01*
X223842543Y-14893924D01*
X223823137Y-14884745D01*
X223804724Y-14873709D01*
X223787481Y-14860921D01*
X223771575Y-14846505D01*
X223757159Y-14830599D01*
X223744371Y-14813356D01*
X223733335Y-14794943D01*
X223724156Y-14775537D01*
X223716924Y-14755325D01*
X223711708Y-14734501D01*
X223708558Y-14713266D01*
X223707505Y-14691825D01*
X223707505Y-14179325D01*
X223708558Y-14157884D01*
X223711708Y-14136649D01*
X223716924Y-14115825D01*
X223724156Y-14095613D01*
X223733335Y-14076207D01*
X223744371Y-14057794D01*
X223757159Y-14040551D01*
X223771575Y-14024645D01*
X223787481Y-14010229D01*
X223804724Y-13997441D01*
X223823137Y-13986405D01*
X223842543Y-13977226D01*
X223862755Y-13969994D01*
X223883579Y-13964778D01*
X223904814Y-13961628D01*
X223926255Y-13960575D01*
X224363755Y-13960575D01*
X224385196Y-13961628D01*
X224385196Y-13961628D01*
G37*
D12*
X224145005Y-14435575D03*
D11*
G36*
X225960196Y-13961628D02*
X225981431Y-13964778D01*
X226002255Y-13969994D01*
X226022467Y-13977226D01*
X226041873Y-13986405D01*
X226060286Y-13997441D01*
X226077529Y-14010229D01*
X226093435Y-14024645D01*
X226107851Y-14040551D01*
X226120639Y-14057794D01*
X226131675Y-14076207D01*
X226140854Y-14095613D01*
X226148086Y-14115825D01*
X226153302Y-14136649D01*
X226156452Y-14157884D01*
X226157505Y-14179325D01*
X226157505Y-14691825D01*
X226156452Y-14713266D01*
X226153302Y-14734501D01*
X226148086Y-14755325D01*
X226140854Y-14775537D01*
X226131675Y-14794943D01*
X226120639Y-14813356D01*
X226107851Y-14830599D01*
X226093435Y-14846505D01*
X226077529Y-14860921D01*
X226060286Y-14873709D01*
X226041873Y-14884745D01*
X226022467Y-14893924D01*
X226002255Y-14901156D01*
X225981431Y-14906372D01*
X225960196Y-14909522D01*
X225938755Y-14910575D01*
X225501255Y-14910575D01*
X225479814Y-14909522D01*
X225458579Y-14906372D01*
X225437755Y-14901156D01*
X225417543Y-14893924D01*
X225398137Y-14884745D01*
X225379724Y-14873709D01*
X225362481Y-14860921D01*
X225346575Y-14846505D01*
X225332159Y-14830599D01*
X225319371Y-14813356D01*
X225308335Y-14794943D01*
X225299156Y-14775537D01*
X225291924Y-14755325D01*
X225286708Y-14734501D01*
X225283558Y-14713266D01*
X225282505Y-14691825D01*
X225282505Y-14179325D01*
X225283558Y-14157884D01*
X225286708Y-14136649D01*
X225291924Y-14115825D01*
X225299156Y-14095613D01*
X225308335Y-14076207D01*
X225319371Y-14057794D01*
X225332159Y-14040551D01*
X225346575Y-14024645D01*
X225362481Y-14010229D01*
X225379724Y-13997441D01*
X225398137Y-13986405D01*
X225417543Y-13977226D01*
X225437755Y-13969994D01*
X225458579Y-13964778D01*
X225479814Y-13961628D01*
X225501255Y-13960575D01*
X225938755Y-13960575D01*
X225960196Y-13961628D01*
X225960196Y-13961628D01*
G37*
D12*
X225720005Y-14435575D03*
G04 #@! TD*
D11*
G04 #@! TO.C,C12*
G36*
X168900305Y-13279219D02*
X168921540Y-13282369D01*
X168942364Y-13287585D01*
X168962576Y-13294817D01*
X168981982Y-13303996D01*
X169000395Y-13315032D01*
X169017638Y-13327820D01*
X169033544Y-13342236D01*
X169047960Y-13358142D01*
X169060748Y-13375385D01*
X169071784Y-13393798D01*
X169080963Y-13413204D01*
X169088195Y-13433416D01*
X169093411Y-13454240D01*
X169096561Y-13475475D01*
X169097614Y-13496916D01*
X169097614Y-14009416D01*
X169096561Y-14030857D01*
X169093411Y-14052092D01*
X169088195Y-14072916D01*
X169080963Y-14093128D01*
X169071784Y-14112534D01*
X169060748Y-14130947D01*
X169047960Y-14148190D01*
X169033544Y-14164096D01*
X169017638Y-14178512D01*
X169000395Y-14191300D01*
X168981982Y-14202336D01*
X168962576Y-14211515D01*
X168942364Y-14218747D01*
X168921540Y-14223963D01*
X168900305Y-14227113D01*
X168878864Y-14228166D01*
X168441364Y-14228166D01*
X168419923Y-14227113D01*
X168398688Y-14223963D01*
X168377864Y-14218747D01*
X168357652Y-14211515D01*
X168338246Y-14202336D01*
X168319833Y-14191300D01*
X168302590Y-14178512D01*
X168286684Y-14164096D01*
X168272268Y-14148190D01*
X168259480Y-14130947D01*
X168248444Y-14112534D01*
X168239265Y-14093128D01*
X168232033Y-14072916D01*
X168226817Y-14052092D01*
X168223667Y-14030857D01*
X168222614Y-14009416D01*
X168222614Y-13496916D01*
X168223667Y-13475475D01*
X168226817Y-13454240D01*
X168232033Y-13433416D01*
X168239265Y-13413204D01*
X168248444Y-13393798D01*
X168259480Y-13375385D01*
X168272268Y-13358142D01*
X168286684Y-13342236D01*
X168302590Y-13327820D01*
X168319833Y-13315032D01*
X168338246Y-13303996D01*
X168357652Y-13294817D01*
X168377864Y-13287585D01*
X168398688Y-13282369D01*
X168419923Y-13279219D01*
X168441364Y-13278166D01*
X168878864Y-13278166D01*
X168900305Y-13279219D01*
X168900305Y-13279219D01*
G37*
D12*
X168660114Y-13753166D03*
D11*
G36*
X167325305Y-13279219D02*
X167346540Y-13282369D01*
X167367364Y-13287585D01*
X167387576Y-13294817D01*
X167406982Y-13303996D01*
X167425395Y-13315032D01*
X167442638Y-13327820D01*
X167458544Y-13342236D01*
X167472960Y-13358142D01*
X167485748Y-13375385D01*
X167496784Y-13393798D01*
X167505963Y-13413204D01*
X167513195Y-13433416D01*
X167518411Y-13454240D01*
X167521561Y-13475475D01*
X167522614Y-13496916D01*
X167522614Y-14009416D01*
X167521561Y-14030857D01*
X167518411Y-14052092D01*
X167513195Y-14072916D01*
X167505963Y-14093128D01*
X167496784Y-14112534D01*
X167485748Y-14130947D01*
X167472960Y-14148190D01*
X167458544Y-14164096D01*
X167442638Y-14178512D01*
X167425395Y-14191300D01*
X167406982Y-14202336D01*
X167387576Y-14211515D01*
X167367364Y-14218747D01*
X167346540Y-14223963D01*
X167325305Y-14227113D01*
X167303864Y-14228166D01*
X166866364Y-14228166D01*
X166844923Y-14227113D01*
X166823688Y-14223963D01*
X166802864Y-14218747D01*
X166782652Y-14211515D01*
X166763246Y-14202336D01*
X166744833Y-14191300D01*
X166727590Y-14178512D01*
X166711684Y-14164096D01*
X166697268Y-14148190D01*
X166684480Y-14130947D01*
X166673444Y-14112534D01*
X166664265Y-14093128D01*
X166657033Y-14072916D01*
X166651817Y-14052092D01*
X166648667Y-14030857D01*
X166647614Y-14009416D01*
X166647614Y-13496916D01*
X166648667Y-13475475D01*
X166651817Y-13454240D01*
X166657033Y-13433416D01*
X166664265Y-13413204D01*
X166673444Y-13393798D01*
X166684480Y-13375385D01*
X166697268Y-13358142D01*
X166711684Y-13342236D01*
X166727590Y-13327820D01*
X166744833Y-13315032D01*
X166763246Y-13303996D01*
X166782652Y-13294817D01*
X166802864Y-13287585D01*
X166823688Y-13282369D01*
X166844923Y-13279219D01*
X166866364Y-13278166D01*
X167303864Y-13278166D01*
X167325305Y-13279219D01*
X167325305Y-13279219D01*
G37*
D12*
X167085114Y-13753166D03*
G04 #@! TD*
D11*
G04 #@! TO.C,C13*
G36*
X110107935Y-13279219D02*
X110129170Y-13282369D01*
X110149994Y-13287585D01*
X110170206Y-13294817D01*
X110189612Y-13303996D01*
X110208025Y-13315032D01*
X110225268Y-13327820D01*
X110241174Y-13342236D01*
X110255590Y-13358142D01*
X110268378Y-13375385D01*
X110279414Y-13393798D01*
X110288593Y-13413204D01*
X110295825Y-13433416D01*
X110301041Y-13454240D01*
X110304191Y-13475475D01*
X110305244Y-13496916D01*
X110305244Y-14009416D01*
X110304191Y-14030857D01*
X110301041Y-14052092D01*
X110295825Y-14072916D01*
X110288593Y-14093128D01*
X110279414Y-14112534D01*
X110268378Y-14130947D01*
X110255590Y-14148190D01*
X110241174Y-14164096D01*
X110225268Y-14178512D01*
X110208025Y-14191300D01*
X110189612Y-14202336D01*
X110170206Y-14211515D01*
X110149994Y-14218747D01*
X110129170Y-14223963D01*
X110107935Y-14227113D01*
X110086494Y-14228166D01*
X109648994Y-14228166D01*
X109627553Y-14227113D01*
X109606318Y-14223963D01*
X109585494Y-14218747D01*
X109565282Y-14211515D01*
X109545876Y-14202336D01*
X109527463Y-14191300D01*
X109510220Y-14178512D01*
X109494314Y-14164096D01*
X109479898Y-14148190D01*
X109467110Y-14130947D01*
X109456074Y-14112534D01*
X109446895Y-14093128D01*
X109439663Y-14072916D01*
X109434447Y-14052092D01*
X109431297Y-14030857D01*
X109430244Y-14009416D01*
X109430244Y-13496916D01*
X109431297Y-13475475D01*
X109434447Y-13454240D01*
X109439663Y-13433416D01*
X109446895Y-13413204D01*
X109456074Y-13393798D01*
X109467110Y-13375385D01*
X109479898Y-13358142D01*
X109494314Y-13342236D01*
X109510220Y-13327820D01*
X109527463Y-13315032D01*
X109545876Y-13303996D01*
X109565282Y-13294817D01*
X109585494Y-13287585D01*
X109606318Y-13282369D01*
X109627553Y-13279219D01*
X109648994Y-13278166D01*
X110086494Y-13278166D01*
X110107935Y-13279219D01*
X110107935Y-13279219D01*
G37*
D12*
X109867744Y-13753166D03*
D11*
G36*
X111682935Y-13279219D02*
X111704170Y-13282369D01*
X111724994Y-13287585D01*
X111745206Y-13294817D01*
X111764612Y-13303996D01*
X111783025Y-13315032D01*
X111800268Y-13327820D01*
X111816174Y-13342236D01*
X111830590Y-13358142D01*
X111843378Y-13375385D01*
X111854414Y-13393798D01*
X111863593Y-13413204D01*
X111870825Y-13433416D01*
X111876041Y-13454240D01*
X111879191Y-13475475D01*
X111880244Y-13496916D01*
X111880244Y-14009416D01*
X111879191Y-14030857D01*
X111876041Y-14052092D01*
X111870825Y-14072916D01*
X111863593Y-14093128D01*
X111854414Y-14112534D01*
X111843378Y-14130947D01*
X111830590Y-14148190D01*
X111816174Y-14164096D01*
X111800268Y-14178512D01*
X111783025Y-14191300D01*
X111764612Y-14202336D01*
X111745206Y-14211515D01*
X111724994Y-14218747D01*
X111704170Y-14223963D01*
X111682935Y-14227113D01*
X111661494Y-14228166D01*
X111223994Y-14228166D01*
X111202553Y-14227113D01*
X111181318Y-14223963D01*
X111160494Y-14218747D01*
X111140282Y-14211515D01*
X111120876Y-14202336D01*
X111102463Y-14191300D01*
X111085220Y-14178512D01*
X111069314Y-14164096D01*
X111054898Y-14148190D01*
X111042110Y-14130947D01*
X111031074Y-14112534D01*
X111021895Y-14093128D01*
X111014663Y-14072916D01*
X111009447Y-14052092D01*
X111006297Y-14030857D01*
X111005244Y-14009416D01*
X111005244Y-13496916D01*
X111006297Y-13475475D01*
X111009447Y-13454240D01*
X111014663Y-13433416D01*
X111021895Y-13413204D01*
X111031074Y-13393798D01*
X111042110Y-13375385D01*
X111054898Y-13358142D01*
X111069314Y-13342236D01*
X111085220Y-13327820D01*
X111102463Y-13315032D01*
X111120876Y-13303996D01*
X111140282Y-13294817D01*
X111160494Y-13287585D01*
X111181318Y-13282369D01*
X111202553Y-13279219D01*
X111223994Y-13278166D01*
X111661494Y-13278166D01*
X111682935Y-13279219D01*
X111682935Y-13279219D01*
G37*
D12*
X111442744Y-13753166D03*
G04 #@! TD*
D11*
G04 #@! TO.C,C14*
G36*
X54203100Y-12911768D02*
X54224335Y-12914918D01*
X54245159Y-12920134D01*
X54265371Y-12927366D01*
X54284777Y-12936545D01*
X54303190Y-12947581D01*
X54320433Y-12960369D01*
X54336339Y-12974785D01*
X54350755Y-12990691D01*
X54363543Y-13007934D01*
X54374579Y-13026347D01*
X54383758Y-13045753D01*
X54390990Y-13065965D01*
X54396206Y-13086789D01*
X54399356Y-13108024D01*
X54400409Y-13129465D01*
X54400409Y-13641965D01*
X54399356Y-13663406D01*
X54396206Y-13684641D01*
X54390990Y-13705465D01*
X54383758Y-13725677D01*
X54374579Y-13745083D01*
X54363543Y-13763496D01*
X54350755Y-13780739D01*
X54336339Y-13796645D01*
X54320433Y-13811061D01*
X54303190Y-13823849D01*
X54284777Y-13834885D01*
X54265371Y-13844064D01*
X54245159Y-13851296D01*
X54224335Y-13856512D01*
X54203100Y-13859662D01*
X54181659Y-13860715D01*
X53744159Y-13860715D01*
X53722718Y-13859662D01*
X53701483Y-13856512D01*
X53680659Y-13851296D01*
X53660447Y-13844064D01*
X53641041Y-13834885D01*
X53622628Y-13823849D01*
X53605385Y-13811061D01*
X53589479Y-13796645D01*
X53575063Y-13780739D01*
X53562275Y-13763496D01*
X53551239Y-13745083D01*
X53542060Y-13725677D01*
X53534828Y-13705465D01*
X53529612Y-13684641D01*
X53526462Y-13663406D01*
X53525409Y-13641965D01*
X53525409Y-13129465D01*
X53526462Y-13108024D01*
X53529612Y-13086789D01*
X53534828Y-13065965D01*
X53542060Y-13045753D01*
X53551239Y-13026347D01*
X53562275Y-13007934D01*
X53575063Y-12990691D01*
X53589479Y-12974785D01*
X53605385Y-12960369D01*
X53622628Y-12947581D01*
X53641041Y-12936545D01*
X53660447Y-12927366D01*
X53680659Y-12920134D01*
X53701483Y-12914918D01*
X53722718Y-12911768D01*
X53744159Y-12910715D01*
X54181659Y-12910715D01*
X54203100Y-12911768D01*
X54203100Y-12911768D01*
G37*
D12*
X53962909Y-13385715D03*
D11*
G36*
X52628100Y-12911768D02*
X52649335Y-12914918D01*
X52670159Y-12920134D01*
X52690371Y-12927366D01*
X52709777Y-12936545D01*
X52728190Y-12947581D01*
X52745433Y-12960369D01*
X52761339Y-12974785D01*
X52775755Y-12990691D01*
X52788543Y-13007934D01*
X52799579Y-13026347D01*
X52808758Y-13045753D01*
X52815990Y-13065965D01*
X52821206Y-13086789D01*
X52824356Y-13108024D01*
X52825409Y-13129465D01*
X52825409Y-13641965D01*
X52824356Y-13663406D01*
X52821206Y-13684641D01*
X52815990Y-13705465D01*
X52808758Y-13725677D01*
X52799579Y-13745083D01*
X52788543Y-13763496D01*
X52775755Y-13780739D01*
X52761339Y-13796645D01*
X52745433Y-13811061D01*
X52728190Y-13823849D01*
X52709777Y-13834885D01*
X52690371Y-13844064D01*
X52670159Y-13851296D01*
X52649335Y-13856512D01*
X52628100Y-13859662D01*
X52606659Y-13860715D01*
X52169159Y-13860715D01*
X52147718Y-13859662D01*
X52126483Y-13856512D01*
X52105659Y-13851296D01*
X52085447Y-13844064D01*
X52066041Y-13834885D01*
X52047628Y-13823849D01*
X52030385Y-13811061D01*
X52014479Y-13796645D01*
X52000063Y-13780739D01*
X51987275Y-13763496D01*
X51976239Y-13745083D01*
X51967060Y-13725677D01*
X51959828Y-13705465D01*
X51954612Y-13684641D01*
X51951462Y-13663406D01*
X51950409Y-13641965D01*
X51950409Y-13129465D01*
X51951462Y-13108024D01*
X51954612Y-13086789D01*
X51959828Y-13065965D01*
X51967060Y-13045753D01*
X51976239Y-13026347D01*
X51987275Y-13007934D01*
X52000063Y-12990691D01*
X52014479Y-12974785D01*
X52030385Y-12960369D01*
X52047628Y-12947581D01*
X52066041Y-12936545D01*
X52085447Y-12927366D01*
X52105659Y-12920134D01*
X52126483Y-12914918D01*
X52147718Y-12911768D01*
X52169159Y-12910715D01*
X52606659Y-12910715D01*
X52628100Y-12911768D01*
X52628100Y-12911768D01*
G37*
D12*
X52387909Y-13385715D03*
G04 #@! TD*
D11*
G04 #@! TO.C,C15*
G36*
X10318742Y-17268687D02*
X10339977Y-17271837D01*
X10360801Y-17277053D01*
X10381013Y-17284285D01*
X10400419Y-17293464D01*
X10418832Y-17304500D01*
X10436075Y-17317288D01*
X10451981Y-17331704D01*
X10466397Y-17347610D01*
X10479185Y-17364853D01*
X10490221Y-17383266D01*
X10499400Y-17402672D01*
X10506632Y-17422884D01*
X10511848Y-17443708D01*
X10514998Y-17464943D01*
X10516051Y-17486384D01*
X10516051Y-17998884D01*
X10514998Y-18020325D01*
X10511848Y-18041560D01*
X10506632Y-18062384D01*
X10499400Y-18082596D01*
X10490221Y-18102002D01*
X10479185Y-18120415D01*
X10466397Y-18137658D01*
X10451981Y-18153564D01*
X10436075Y-18167980D01*
X10418832Y-18180768D01*
X10400419Y-18191804D01*
X10381013Y-18200983D01*
X10360801Y-18208215D01*
X10339977Y-18213431D01*
X10318742Y-18216581D01*
X10297301Y-18217634D01*
X9859801Y-18217634D01*
X9838360Y-18216581D01*
X9817125Y-18213431D01*
X9796301Y-18208215D01*
X9776089Y-18200983D01*
X9756683Y-18191804D01*
X9738270Y-18180768D01*
X9721027Y-18167980D01*
X9705121Y-18153564D01*
X9690705Y-18137658D01*
X9677917Y-18120415D01*
X9666881Y-18102002D01*
X9657702Y-18082596D01*
X9650470Y-18062384D01*
X9645254Y-18041560D01*
X9642104Y-18020325D01*
X9641051Y-17998884D01*
X9641051Y-17486384D01*
X9642104Y-17464943D01*
X9645254Y-17443708D01*
X9650470Y-17422884D01*
X9657702Y-17402672D01*
X9666881Y-17383266D01*
X9677917Y-17364853D01*
X9690705Y-17347610D01*
X9705121Y-17331704D01*
X9721027Y-17317288D01*
X9738270Y-17304500D01*
X9756683Y-17293464D01*
X9776089Y-17284285D01*
X9796301Y-17277053D01*
X9817125Y-17271837D01*
X9838360Y-17268687D01*
X9859801Y-17267634D01*
X10297301Y-17267634D01*
X10318742Y-17268687D01*
X10318742Y-17268687D01*
G37*
D12*
X10078551Y-17742634D03*
D11*
G36*
X11893742Y-17268687D02*
X11914977Y-17271837D01*
X11935801Y-17277053D01*
X11956013Y-17284285D01*
X11975419Y-17293464D01*
X11993832Y-17304500D01*
X12011075Y-17317288D01*
X12026981Y-17331704D01*
X12041397Y-17347610D01*
X12054185Y-17364853D01*
X12065221Y-17383266D01*
X12074400Y-17402672D01*
X12081632Y-17422884D01*
X12086848Y-17443708D01*
X12089998Y-17464943D01*
X12091051Y-17486384D01*
X12091051Y-17998884D01*
X12089998Y-18020325D01*
X12086848Y-18041560D01*
X12081632Y-18062384D01*
X12074400Y-18082596D01*
X12065221Y-18102002D01*
X12054185Y-18120415D01*
X12041397Y-18137658D01*
X12026981Y-18153564D01*
X12011075Y-18167980D01*
X11993832Y-18180768D01*
X11975419Y-18191804D01*
X11956013Y-18200983D01*
X11935801Y-18208215D01*
X11914977Y-18213431D01*
X11893742Y-18216581D01*
X11872301Y-18217634D01*
X11434801Y-18217634D01*
X11413360Y-18216581D01*
X11392125Y-18213431D01*
X11371301Y-18208215D01*
X11351089Y-18200983D01*
X11331683Y-18191804D01*
X11313270Y-18180768D01*
X11296027Y-18167980D01*
X11280121Y-18153564D01*
X11265705Y-18137658D01*
X11252917Y-18120415D01*
X11241881Y-18102002D01*
X11232702Y-18082596D01*
X11225470Y-18062384D01*
X11220254Y-18041560D01*
X11217104Y-18020325D01*
X11216051Y-17998884D01*
X11216051Y-17486384D01*
X11217104Y-17464943D01*
X11220254Y-17443708D01*
X11225470Y-17422884D01*
X11232702Y-17402672D01*
X11241881Y-17383266D01*
X11252917Y-17364853D01*
X11265705Y-17347610D01*
X11280121Y-17331704D01*
X11296027Y-17317288D01*
X11313270Y-17304500D01*
X11331683Y-17293464D01*
X11351089Y-17284285D01*
X11371301Y-17277053D01*
X11392125Y-17271837D01*
X11413360Y-17268687D01*
X11434801Y-17267634D01*
X11872301Y-17267634D01*
X11893742Y-17268687D01*
X11893742Y-17268687D01*
G37*
D12*
X11653551Y-17742634D03*
G04 #@! TD*
D11*
G04 #@! TO.C,C16*
G36*
X5069442Y-43410201D02*
X5090677Y-43413351D01*
X5111501Y-43418567D01*
X5131713Y-43425799D01*
X5151119Y-43434978D01*
X5169532Y-43446014D01*
X5186775Y-43458802D01*
X5202681Y-43473218D01*
X5217097Y-43489124D01*
X5229885Y-43506367D01*
X5240921Y-43524780D01*
X5250100Y-43544186D01*
X5257332Y-43564398D01*
X5262548Y-43585222D01*
X5265698Y-43606457D01*
X5266751Y-43627898D01*
X5266751Y-44140398D01*
X5265698Y-44161839D01*
X5262548Y-44183074D01*
X5257332Y-44203898D01*
X5250100Y-44224110D01*
X5240921Y-44243516D01*
X5229885Y-44261929D01*
X5217097Y-44279172D01*
X5202681Y-44295078D01*
X5186775Y-44309494D01*
X5169532Y-44322282D01*
X5151119Y-44333318D01*
X5131713Y-44342497D01*
X5111501Y-44349729D01*
X5090677Y-44354945D01*
X5069442Y-44358095D01*
X5048001Y-44359148D01*
X4610501Y-44359148D01*
X4589060Y-44358095D01*
X4567825Y-44354945D01*
X4547001Y-44349729D01*
X4526789Y-44342497D01*
X4507383Y-44333318D01*
X4488970Y-44322282D01*
X4471727Y-44309494D01*
X4455821Y-44295078D01*
X4441405Y-44279172D01*
X4428617Y-44261929D01*
X4417581Y-44243516D01*
X4408402Y-44224110D01*
X4401170Y-44203898D01*
X4395954Y-44183074D01*
X4392804Y-44161839D01*
X4391751Y-44140398D01*
X4391751Y-43627898D01*
X4392804Y-43606457D01*
X4395954Y-43585222D01*
X4401170Y-43564398D01*
X4408402Y-43544186D01*
X4417581Y-43524780D01*
X4428617Y-43506367D01*
X4441405Y-43489124D01*
X4455821Y-43473218D01*
X4471727Y-43458802D01*
X4488970Y-43446014D01*
X4507383Y-43434978D01*
X4526789Y-43425799D01*
X4547001Y-43418567D01*
X4567825Y-43413351D01*
X4589060Y-43410201D01*
X4610501Y-43409148D01*
X5048001Y-43409148D01*
X5069442Y-43410201D01*
X5069442Y-43410201D01*
G37*
D12*
X4829251Y-43884148D03*
D11*
G36*
X6644442Y-43410201D02*
X6665677Y-43413351D01*
X6686501Y-43418567D01*
X6706713Y-43425799D01*
X6726119Y-43434978D01*
X6744532Y-43446014D01*
X6761775Y-43458802D01*
X6777681Y-43473218D01*
X6792097Y-43489124D01*
X6804885Y-43506367D01*
X6815921Y-43524780D01*
X6825100Y-43544186D01*
X6832332Y-43564398D01*
X6837548Y-43585222D01*
X6840698Y-43606457D01*
X6841751Y-43627898D01*
X6841751Y-44140398D01*
X6840698Y-44161839D01*
X6837548Y-44183074D01*
X6832332Y-44203898D01*
X6825100Y-44224110D01*
X6815921Y-44243516D01*
X6804885Y-44261929D01*
X6792097Y-44279172D01*
X6777681Y-44295078D01*
X6761775Y-44309494D01*
X6744532Y-44322282D01*
X6726119Y-44333318D01*
X6706713Y-44342497D01*
X6686501Y-44349729D01*
X6665677Y-44354945D01*
X6644442Y-44358095D01*
X6623001Y-44359148D01*
X6185501Y-44359148D01*
X6164060Y-44358095D01*
X6142825Y-44354945D01*
X6122001Y-44349729D01*
X6101789Y-44342497D01*
X6082383Y-44333318D01*
X6063970Y-44322282D01*
X6046727Y-44309494D01*
X6030821Y-44295078D01*
X6016405Y-44279172D01*
X6003617Y-44261929D01*
X5992581Y-44243516D01*
X5983402Y-44224110D01*
X5976170Y-44203898D01*
X5970954Y-44183074D01*
X5967804Y-44161839D01*
X5966751Y-44140398D01*
X5966751Y-43627898D01*
X5967804Y-43606457D01*
X5970954Y-43585222D01*
X5976170Y-43564398D01*
X5983402Y-43544186D01*
X5992581Y-43524780D01*
X6003617Y-43506367D01*
X6016405Y-43489124D01*
X6030821Y-43473218D01*
X6046727Y-43458802D01*
X6063970Y-43446014D01*
X6082383Y-43434978D01*
X6101789Y-43425799D01*
X6122001Y-43418567D01*
X6142825Y-43413351D01*
X6164060Y-43410201D01*
X6185501Y-43409148D01*
X6623001Y-43409148D01*
X6644442Y-43410201D01*
X6644442Y-43410201D01*
G37*
D12*
X6404251Y-43884148D03*
G04 #@! TD*
D11*
G04 #@! TO.C,C17*
G36*
X19092657Y-86454461D02*
X19113892Y-86457611D01*
X19134716Y-86462827D01*
X19154928Y-86470059D01*
X19174334Y-86479238D01*
X19192747Y-86490274D01*
X19209990Y-86503062D01*
X19225896Y-86517478D01*
X19240312Y-86533384D01*
X19253100Y-86550627D01*
X19264136Y-86569040D01*
X19273315Y-86588446D01*
X19280547Y-86608658D01*
X19285763Y-86629482D01*
X19288913Y-86650717D01*
X19289966Y-86672158D01*
X19289966Y-87184658D01*
X19288913Y-87206099D01*
X19285763Y-87227334D01*
X19280547Y-87248158D01*
X19273315Y-87268370D01*
X19264136Y-87287776D01*
X19253100Y-87306189D01*
X19240312Y-87323432D01*
X19225896Y-87339338D01*
X19209990Y-87353754D01*
X19192747Y-87366542D01*
X19174334Y-87377578D01*
X19154928Y-87386757D01*
X19134716Y-87393989D01*
X19113892Y-87399205D01*
X19092657Y-87402355D01*
X19071216Y-87403408D01*
X18633716Y-87403408D01*
X18612275Y-87402355D01*
X18591040Y-87399205D01*
X18570216Y-87393989D01*
X18550004Y-87386757D01*
X18530598Y-87377578D01*
X18512185Y-87366542D01*
X18494942Y-87353754D01*
X18479036Y-87339338D01*
X18464620Y-87323432D01*
X18451832Y-87306189D01*
X18440796Y-87287776D01*
X18431617Y-87268370D01*
X18424385Y-87248158D01*
X18419169Y-87227334D01*
X18416019Y-87206099D01*
X18414966Y-87184658D01*
X18414966Y-86672158D01*
X18416019Y-86650717D01*
X18419169Y-86629482D01*
X18424385Y-86608658D01*
X18431617Y-86588446D01*
X18440796Y-86569040D01*
X18451832Y-86550627D01*
X18464620Y-86533384D01*
X18479036Y-86517478D01*
X18494942Y-86503062D01*
X18512185Y-86490274D01*
X18530598Y-86479238D01*
X18550004Y-86470059D01*
X18570216Y-86462827D01*
X18591040Y-86457611D01*
X18612275Y-86454461D01*
X18633716Y-86453408D01*
X19071216Y-86453408D01*
X19092657Y-86454461D01*
X19092657Y-86454461D01*
G37*
D12*
X18852466Y-86928408D03*
D11*
G36*
X17517657Y-86454461D02*
X17538892Y-86457611D01*
X17559716Y-86462827D01*
X17579928Y-86470059D01*
X17599334Y-86479238D01*
X17617747Y-86490274D01*
X17634990Y-86503062D01*
X17650896Y-86517478D01*
X17665312Y-86533384D01*
X17678100Y-86550627D01*
X17689136Y-86569040D01*
X17698315Y-86588446D01*
X17705547Y-86608658D01*
X17710763Y-86629482D01*
X17713913Y-86650717D01*
X17714966Y-86672158D01*
X17714966Y-87184658D01*
X17713913Y-87206099D01*
X17710763Y-87227334D01*
X17705547Y-87248158D01*
X17698315Y-87268370D01*
X17689136Y-87287776D01*
X17678100Y-87306189D01*
X17665312Y-87323432D01*
X17650896Y-87339338D01*
X17634990Y-87353754D01*
X17617747Y-87366542D01*
X17599334Y-87377578D01*
X17579928Y-87386757D01*
X17559716Y-87393989D01*
X17538892Y-87399205D01*
X17517657Y-87402355D01*
X17496216Y-87403408D01*
X17058716Y-87403408D01*
X17037275Y-87402355D01*
X17016040Y-87399205D01*
X16995216Y-87393989D01*
X16975004Y-87386757D01*
X16955598Y-87377578D01*
X16937185Y-87366542D01*
X16919942Y-87353754D01*
X16904036Y-87339338D01*
X16889620Y-87323432D01*
X16876832Y-87306189D01*
X16865796Y-87287776D01*
X16856617Y-87268370D01*
X16849385Y-87248158D01*
X16844169Y-87227334D01*
X16841019Y-87206099D01*
X16839966Y-87184658D01*
X16839966Y-86672158D01*
X16841019Y-86650717D01*
X16844169Y-86629482D01*
X16849385Y-86608658D01*
X16856617Y-86588446D01*
X16865796Y-86569040D01*
X16876832Y-86550627D01*
X16889620Y-86533384D01*
X16904036Y-86517478D01*
X16919942Y-86503062D01*
X16937185Y-86490274D01*
X16955598Y-86479238D01*
X16975004Y-86470059D01*
X16995216Y-86462827D01*
X17016040Y-86457611D01*
X17037275Y-86454461D01*
X17058716Y-86453408D01*
X17496216Y-86453408D01*
X17517657Y-86454461D01*
X17517657Y-86454461D01*
G37*
D12*
X17277466Y-86928408D03*
G04 #@! TD*
D11*
G04 #@! TO.C,C18*
G36*
X70528213Y-87556814D02*
X70549448Y-87559964D01*
X70570272Y-87565180D01*
X70590484Y-87572412D01*
X70609890Y-87581591D01*
X70628303Y-87592627D01*
X70645546Y-87605415D01*
X70661452Y-87619831D01*
X70675868Y-87635737D01*
X70688656Y-87652980D01*
X70699692Y-87671393D01*
X70708871Y-87690799D01*
X70716103Y-87711011D01*
X70721319Y-87731835D01*
X70724469Y-87753070D01*
X70725522Y-87774511D01*
X70725522Y-88287011D01*
X70724469Y-88308452D01*
X70721319Y-88329687D01*
X70716103Y-88350511D01*
X70708871Y-88370723D01*
X70699692Y-88390129D01*
X70688656Y-88408542D01*
X70675868Y-88425785D01*
X70661452Y-88441691D01*
X70645546Y-88456107D01*
X70628303Y-88468895D01*
X70609890Y-88479931D01*
X70590484Y-88489110D01*
X70570272Y-88496342D01*
X70549448Y-88501558D01*
X70528213Y-88504708D01*
X70506772Y-88505761D01*
X70069272Y-88505761D01*
X70047831Y-88504708D01*
X70026596Y-88501558D01*
X70005772Y-88496342D01*
X69985560Y-88489110D01*
X69966154Y-88479931D01*
X69947741Y-88468895D01*
X69930498Y-88456107D01*
X69914592Y-88441691D01*
X69900176Y-88425785D01*
X69887388Y-88408542D01*
X69876352Y-88390129D01*
X69867173Y-88370723D01*
X69859941Y-88350511D01*
X69854725Y-88329687D01*
X69851575Y-88308452D01*
X69850522Y-88287011D01*
X69850522Y-87774511D01*
X69851575Y-87753070D01*
X69854725Y-87731835D01*
X69859941Y-87711011D01*
X69867173Y-87690799D01*
X69876352Y-87671393D01*
X69887388Y-87652980D01*
X69900176Y-87635737D01*
X69914592Y-87619831D01*
X69930498Y-87605415D01*
X69947741Y-87592627D01*
X69966154Y-87581591D01*
X69985560Y-87572412D01*
X70005772Y-87565180D01*
X70026596Y-87559964D01*
X70047831Y-87556814D01*
X70069272Y-87555761D01*
X70506772Y-87555761D01*
X70528213Y-87556814D01*
X70528213Y-87556814D01*
G37*
D12*
X70288022Y-88030761D03*
D11*
G36*
X72103213Y-87556814D02*
X72124448Y-87559964D01*
X72145272Y-87565180D01*
X72165484Y-87572412D01*
X72184890Y-87581591D01*
X72203303Y-87592627D01*
X72220546Y-87605415D01*
X72236452Y-87619831D01*
X72250868Y-87635737D01*
X72263656Y-87652980D01*
X72274692Y-87671393D01*
X72283871Y-87690799D01*
X72291103Y-87711011D01*
X72296319Y-87731835D01*
X72299469Y-87753070D01*
X72300522Y-87774511D01*
X72300522Y-88287011D01*
X72299469Y-88308452D01*
X72296319Y-88329687D01*
X72291103Y-88350511D01*
X72283871Y-88370723D01*
X72274692Y-88390129D01*
X72263656Y-88408542D01*
X72250868Y-88425785D01*
X72236452Y-88441691D01*
X72220546Y-88456107D01*
X72203303Y-88468895D01*
X72184890Y-88479931D01*
X72165484Y-88489110D01*
X72145272Y-88496342D01*
X72124448Y-88501558D01*
X72103213Y-88504708D01*
X72081772Y-88505761D01*
X71644272Y-88505761D01*
X71622831Y-88504708D01*
X71601596Y-88501558D01*
X71580772Y-88496342D01*
X71560560Y-88489110D01*
X71541154Y-88479931D01*
X71522741Y-88468895D01*
X71505498Y-88456107D01*
X71489592Y-88441691D01*
X71475176Y-88425785D01*
X71462388Y-88408542D01*
X71451352Y-88390129D01*
X71442173Y-88370723D01*
X71434941Y-88350511D01*
X71429725Y-88329687D01*
X71426575Y-88308452D01*
X71425522Y-88287011D01*
X71425522Y-87774511D01*
X71426575Y-87753070D01*
X71429725Y-87731835D01*
X71434941Y-87711011D01*
X71442173Y-87690799D01*
X71451352Y-87671393D01*
X71462388Y-87652980D01*
X71475176Y-87635737D01*
X71489592Y-87619831D01*
X71505498Y-87605415D01*
X71522741Y-87592627D01*
X71541154Y-87581591D01*
X71560560Y-87572412D01*
X71580772Y-87565180D01*
X71601596Y-87559964D01*
X71622831Y-87556814D01*
X71644272Y-87555761D01*
X72081772Y-87555761D01*
X72103213Y-87556814D01*
X72103213Y-87556814D01*
G37*
D12*
X71863022Y-88030761D03*
G04 #@! TD*
D11*
G04 #@! TO.C,C19*
G36*
X141026522Y-87556814D02*
X141047757Y-87559964D01*
X141068581Y-87565180D01*
X141088793Y-87572412D01*
X141108199Y-87581591D01*
X141126612Y-87592627D01*
X141143855Y-87605415D01*
X141159761Y-87619831D01*
X141174177Y-87635737D01*
X141186965Y-87652980D01*
X141198001Y-87671393D01*
X141207180Y-87690799D01*
X141214412Y-87711011D01*
X141219628Y-87731835D01*
X141222778Y-87753070D01*
X141223831Y-87774511D01*
X141223831Y-88287011D01*
X141222778Y-88308452D01*
X141219628Y-88329687D01*
X141214412Y-88350511D01*
X141207180Y-88370723D01*
X141198001Y-88390129D01*
X141186965Y-88408542D01*
X141174177Y-88425785D01*
X141159761Y-88441691D01*
X141143855Y-88456107D01*
X141126612Y-88468895D01*
X141108199Y-88479931D01*
X141088793Y-88489110D01*
X141068581Y-88496342D01*
X141047757Y-88501558D01*
X141026522Y-88504708D01*
X141005081Y-88505761D01*
X140567581Y-88505761D01*
X140546140Y-88504708D01*
X140524905Y-88501558D01*
X140504081Y-88496342D01*
X140483869Y-88489110D01*
X140464463Y-88479931D01*
X140446050Y-88468895D01*
X140428807Y-88456107D01*
X140412901Y-88441691D01*
X140398485Y-88425785D01*
X140385697Y-88408542D01*
X140374661Y-88390129D01*
X140365482Y-88370723D01*
X140358250Y-88350511D01*
X140353034Y-88329687D01*
X140349884Y-88308452D01*
X140348831Y-88287011D01*
X140348831Y-87774511D01*
X140349884Y-87753070D01*
X140353034Y-87731835D01*
X140358250Y-87711011D01*
X140365482Y-87690799D01*
X140374661Y-87671393D01*
X140385697Y-87652980D01*
X140398485Y-87635737D01*
X140412901Y-87619831D01*
X140428807Y-87605415D01*
X140446050Y-87592627D01*
X140464463Y-87581591D01*
X140483869Y-87572412D01*
X140504081Y-87565180D01*
X140524905Y-87559964D01*
X140546140Y-87556814D01*
X140567581Y-87555761D01*
X141005081Y-87555761D01*
X141026522Y-87556814D01*
X141026522Y-87556814D01*
G37*
D12*
X140786331Y-88030761D03*
D11*
G36*
X139451522Y-87556814D02*
X139472757Y-87559964D01*
X139493581Y-87565180D01*
X139513793Y-87572412D01*
X139533199Y-87581591D01*
X139551612Y-87592627D01*
X139568855Y-87605415D01*
X139584761Y-87619831D01*
X139599177Y-87635737D01*
X139611965Y-87652980D01*
X139623001Y-87671393D01*
X139632180Y-87690799D01*
X139639412Y-87711011D01*
X139644628Y-87731835D01*
X139647778Y-87753070D01*
X139648831Y-87774511D01*
X139648831Y-88287011D01*
X139647778Y-88308452D01*
X139644628Y-88329687D01*
X139639412Y-88350511D01*
X139632180Y-88370723D01*
X139623001Y-88390129D01*
X139611965Y-88408542D01*
X139599177Y-88425785D01*
X139584761Y-88441691D01*
X139568855Y-88456107D01*
X139551612Y-88468895D01*
X139533199Y-88479931D01*
X139513793Y-88489110D01*
X139493581Y-88496342D01*
X139472757Y-88501558D01*
X139451522Y-88504708D01*
X139430081Y-88505761D01*
X138992581Y-88505761D01*
X138971140Y-88504708D01*
X138949905Y-88501558D01*
X138929081Y-88496342D01*
X138908869Y-88489110D01*
X138889463Y-88479931D01*
X138871050Y-88468895D01*
X138853807Y-88456107D01*
X138837901Y-88441691D01*
X138823485Y-88425785D01*
X138810697Y-88408542D01*
X138799661Y-88390129D01*
X138790482Y-88370723D01*
X138783250Y-88350511D01*
X138778034Y-88329687D01*
X138774884Y-88308452D01*
X138773831Y-88287011D01*
X138773831Y-87774511D01*
X138774884Y-87753070D01*
X138778034Y-87731835D01*
X138783250Y-87711011D01*
X138790482Y-87690799D01*
X138799661Y-87671393D01*
X138810697Y-87652980D01*
X138823485Y-87635737D01*
X138837901Y-87619831D01*
X138853807Y-87605415D01*
X138871050Y-87592627D01*
X138889463Y-87581591D01*
X138908869Y-87572412D01*
X138929081Y-87565180D01*
X138949905Y-87559964D01*
X138971140Y-87556814D01*
X138992581Y-87555761D01*
X139430081Y-87555761D01*
X139451522Y-87556814D01*
X139451522Y-87556814D01*
G37*
D12*
X139211331Y-88030761D03*
G04 #@! TD*
D11*
G04 #@! TO.C,C20*
G36*
X186380264Y-87241856D02*
X186401499Y-87245006D01*
X186422323Y-87250222D01*
X186442535Y-87257454D01*
X186461941Y-87266633D01*
X186480354Y-87277669D01*
X186497597Y-87290457D01*
X186513503Y-87304873D01*
X186527919Y-87320779D01*
X186540707Y-87338022D01*
X186551743Y-87356435D01*
X186560922Y-87375841D01*
X186568154Y-87396053D01*
X186573370Y-87416877D01*
X186576520Y-87438112D01*
X186577573Y-87459553D01*
X186577573Y-87972053D01*
X186576520Y-87993494D01*
X186573370Y-88014729D01*
X186568154Y-88035553D01*
X186560922Y-88055765D01*
X186551743Y-88075171D01*
X186540707Y-88093584D01*
X186527919Y-88110827D01*
X186513503Y-88126733D01*
X186497597Y-88141149D01*
X186480354Y-88153937D01*
X186461941Y-88164973D01*
X186442535Y-88174152D01*
X186422323Y-88181384D01*
X186401499Y-88186600D01*
X186380264Y-88189750D01*
X186358823Y-88190803D01*
X185921323Y-88190803D01*
X185899882Y-88189750D01*
X185878647Y-88186600D01*
X185857823Y-88181384D01*
X185837611Y-88174152D01*
X185818205Y-88164973D01*
X185799792Y-88153937D01*
X185782549Y-88141149D01*
X185766643Y-88126733D01*
X185752227Y-88110827D01*
X185739439Y-88093584D01*
X185728403Y-88075171D01*
X185719224Y-88055765D01*
X185711992Y-88035553D01*
X185706776Y-88014729D01*
X185703626Y-87993494D01*
X185702573Y-87972053D01*
X185702573Y-87459553D01*
X185703626Y-87438112D01*
X185706776Y-87416877D01*
X185711992Y-87396053D01*
X185719224Y-87375841D01*
X185728403Y-87356435D01*
X185739439Y-87338022D01*
X185752227Y-87320779D01*
X185766643Y-87304873D01*
X185782549Y-87290457D01*
X185799792Y-87277669D01*
X185818205Y-87266633D01*
X185837611Y-87257454D01*
X185857823Y-87250222D01*
X185878647Y-87245006D01*
X185899882Y-87241856D01*
X185921323Y-87240803D01*
X186358823Y-87240803D01*
X186380264Y-87241856D01*
X186380264Y-87241856D01*
G37*
D12*
X186140073Y-87715803D03*
D11*
G36*
X187955264Y-87241856D02*
X187976499Y-87245006D01*
X187997323Y-87250222D01*
X188017535Y-87257454D01*
X188036941Y-87266633D01*
X188055354Y-87277669D01*
X188072597Y-87290457D01*
X188088503Y-87304873D01*
X188102919Y-87320779D01*
X188115707Y-87338022D01*
X188126743Y-87356435D01*
X188135922Y-87375841D01*
X188143154Y-87396053D01*
X188148370Y-87416877D01*
X188151520Y-87438112D01*
X188152573Y-87459553D01*
X188152573Y-87972053D01*
X188151520Y-87993494D01*
X188148370Y-88014729D01*
X188143154Y-88035553D01*
X188135922Y-88055765D01*
X188126743Y-88075171D01*
X188115707Y-88093584D01*
X188102919Y-88110827D01*
X188088503Y-88126733D01*
X188072597Y-88141149D01*
X188055354Y-88153937D01*
X188036941Y-88164973D01*
X188017535Y-88174152D01*
X187997323Y-88181384D01*
X187976499Y-88186600D01*
X187955264Y-88189750D01*
X187933823Y-88190803D01*
X187496323Y-88190803D01*
X187474882Y-88189750D01*
X187453647Y-88186600D01*
X187432823Y-88181384D01*
X187412611Y-88174152D01*
X187393205Y-88164973D01*
X187374792Y-88153937D01*
X187357549Y-88141149D01*
X187341643Y-88126733D01*
X187327227Y-88110827D01*
X187314439Y-88093584D01*
X187303403Y-88075171D01*
X187294224Y-88055765D01*
X187286992Y-88035553D01*
X187281776Y-88014729D01*
X187278626Y-87993494D01*
X187277573Y-87972053D01*
X187277573Y-87459553D01*
X187278626Y-87438112D01*
X187281776Y-87416877D01*
X187286992Y-87396053D01*
X187294224Y-87375841D01*
X187303403Y-87356435D01*
X187314439Y-87338022D01*
X187327227Y-87320779D01*
X187341643Y-87304873D01*
X187357549Y-87290457D01*
X187374792Y-87277669D01*
X187393205Y-87266633D01*
X187412611Y-87257454D01*
X187432823Y-87250222D01*
X187453647Y-87245006D01*
X187474882Y-87241856D01*
X187496323Y-87240803D01*
X187933823Y-87240803D01*
X187955264Y-87241856D01*
X187955264Y-87241856D01*
G37*
D12*
X187715073Y-87715803D03*
G04 #@! TD*
D11*
G04 #@! TO.C,C21*
G36*
X236511289Y-88134237D02*
X236532524Y-88137387D01*
X236553348Y-88142603D01*
X236573560Y-88149835D01*
X236592966Y-88159014D01*
X236611379Y-88170050D01*
X236628622Y-88182838D01*
X236644528Y-88197254D01*
X236658944Y-88213160D01*
X236671732Y-88230403D01*
X236682768Y-88248816D01*
X236691947Y-88268222D01*
X236699179Y-88288434D01*
X236704395Y-88309258D01*
X236707545Y-88330493D01*
X236708598Y-88351934D01*
X236708598Y-88864434D01*
X236707545Y-88885875D01*
X236704395Y-88907110D01*
X236699179Y-88927934D01*
X236691947Y-88948146D01*
X236682768Y-88967552D01*
X236671732Y-88985965D01*
X236658944Y-89003208D01*
X236644528Y-89019114D01*
X236628622Y-89033530D01*
X236611379Y-89046318D01*
X236592966Y-89057354D01*
X236573560Y-89066533D01*
X236553348Y-89073765D01*
X236532524Y-89078981D01*
X236511289Y-89082131D01*
X236489848Y-89083184D01*
X236052348Y-89083184D01*
X236030907Y-89082131D01*
X236009672Y-89078981D01*
X235988848Y-89073765D01*
X235968636Y-89066533D01*
X235949230Y-89057354D01*
X235930817Y-89046318D01*
X235913574Y-89033530D01*
X235897668Y-89019114D01*
X235883252Y-89003208D01*
X235870464Y-88985965D01*
X235859428Y-88967552D01*
X235850249Y-88948146D01*
X235843017Y-88927934D01*
X235837801Y-88907110D01*
X235834651Y-88885875D01*
X235833598Y-88864434D01*
X235833598Y-88351934D01*
X235834651Y-88330493D01*
X235837801Y-88309258D01*
X235843017Y-88288434D01*
X235850249Y-88268222D01*
X235859428Y-88248816D01*
X235870464Y-88230403D01*
X235883252Y-88213160D01*
X235897668Y-88197254D01*
X235913574Y-88182838D01*
X235930817Y-88170050D01*
X235949230Y-88159014D01*
X235968636Y-88149835D01*
X235988848Y-88142603D01*
X236009672Y-88137387D01*
X236030907Y-88134237D01*
X236052348Y-88133184D01*
X236489848Y-88133184D01*
X236511289Y-88134237D01*
X236511289Y-88134237D01*
G37*
D12*
X236271098Y-88608184D03*
D11*
G36*
X234936289Y-88134237D02*
X234957524Y-88137387D01*
X234978348Y-88142603D01*
X234998560Y-88149835D01*
X235017966Y-88159014D01*
X235036379Y-88170050D01*
X235053622Y-88182838D01*
X235069528Y-88197254D01*
X235083944Y-88213160D01*
X235096732Y-88230403D01*
X235107768Y-88248816D01*
X235116947Y-88268222D01*
X235124179Y-88288434D01*
X235129395Y-88309258D01*
X235132545Y-88330493D01*
X235133598Y-88351934D01*
X235133598Y-88864434D01*
X235132545Y-88885875D01*
X235129395Y-88907110D01*
X235124179Y-88927934D01*
X235116947Y-88948146D01*
X235107768Y-88967552D01*
X235096732Y-88985965D01*
X235083944Y-89003208D01*
X235069528Y-89019114D01*
X235053622Y-89033530D01*
X235036379Y-89046318D01*
X235017966Y-89057354D01*
X234998560Y-89066533D01*
X234978348Y-89073765D01*
X234957524Y-89078981D01*
X234936289Y-89082131D01*
X234914848Y-89083184D01*
X234477348Y-89083184D01*
X234455907Y-89082131D01*
X234434672Y-89078981D01*
X234413848Y-89073765D01*
X234393636Y-89066533D01*
X234374230Y-89057354D01*
X234355817Y-89046318D01*
X234338574Y-89033530D01*
X234322668Y-89019114D01*
X234308252Y-89003208D01*
X234295464Y-88985965D01*
X234284428Y-88967552D01*
X234275249Y-88948146D01*
X234268017Y-88927934D01*
X234262801Y-88907110D01*
X234259651Y-88885875D01*
X234258598Y-88864434D01*
X234258598Y-88351934D01*
X234259651Y-88330493D01*
X234262801Y-88309258D01*
X234268017Y-88288434D01*
X234275249Y-88268222D01*
X234284428Y-88248816D01*
X234295464Y-88230403D01*
X234308252Y-88213160D01*
X234322668Y-88197254D01*
X234338574Y-88182838D01*
X234355817Y-88170050D01*
X234374230Y-88159014D01*
X234393636Y-88149835D01*
X234413848Y-88142603D01*
X234434672Y-88137387D01*
X234455907Y-88134237D01*
X234477348Y-88133184D01*
X234914848Y-88133184D01*
X234936289Y-88134237D01*
X234936289Y-88134237D01*
G37*
D12*
X234696098Y-88608184D03*
G04 #@! TD*
D11*
G04 #@! TO.C,C22*
G36*
X281340101Y-88659167D02*
X281361336Y-88662317D01*
X281382160Y-88667533D01*
X281402372Y-88674765D01*
X281421778Y-88683944D01*
X281440191Y-88694980D01*
X281457434Y-88707768D01*
X281473340Y-88722184D01*
X281487756Y-88738090D01*
X281500544Y-88755333D01*
X281511580Y-88773746D01*
X281520759Y-88793152D01*
X281527991Y-88813364D01*
X281533207Y-88834188D01*
X281536357Y-88855423D01*
X281537410Y-88876864D01*
X281537410Y-89389364D01*
X281536357Y-89410805D01*
X281533207Y-89432040D01*
X281527991Y-89452864D01*
X281520759Y-89473076D01*
X281511580Y-89492482D01*
X281500544Y-89510895D01*
X281487756Y-89528138D01*
X281473340Y-89544044D01*
X281457434Y-89558460D01*
X281440191Y-89571248D01*
X281421778Y-89582284D01*
X281402372Y-89591463D01*
X281382160Y-89598695D01*
X281361336Y-89603911D01*
X281340101Y-89607061D01*
X281318660Y-89608114D01*
X280881160Y-89608114D01*
X280859719Y-89607061D01*
X280838484Y-89603911D01*
X280817660Y-89598695D01*
X280797448Y-89591463D01*
X280778042Y-89582284D01*
X280759629Y-89571248D01*
X280742386Y-89558460D01*
X280726480Y-89544044D01*
X280712064Y-89528138D01*
X280699276Y-89510895D01*
X280688240Y-89492482D01*
X280679061Y-89473076D01*
X280671829Y-89452864D01*
X280666613Y-89432040D01*
X280663463Y-89410805D01*
X280662410Y-89389364D01*
X280662410Y-88876864D01*
X280663463Y-88855423D01*
X280666613Y-88834188D01*
X280671829Y-88813364D01*
X280679061Y-88793152D01*
X280688240Y-88773746D01*
X280699276Y-88755333D01*
X280712064Y-88738090D01*
X280726480Y-88722184D01*
X280742386Y-88707768D01*
X280759629Y-88694980D01*
X280778042Y-88683944D01*
X280797448Y-88674765D01*
X280817660Y-88667533D01*
X280838484Y-88662317D01*
X280859719Y-88659167D01*
X280881160Y-88658114D01*
X281318660Y-88658114D01*
X281340101Y-88659167D01*
X281340101Y-88659167D01*
G37*
D12*
X281099910Y-89133114D03*
D11*
G36*
X282915101Y-88659167D02*
X282936336Y-88662317D01*
X282957160Y-88667533D01*
X282977372Y-88674765D01*
X282996778Y-88683944D01*
X283015191Y-88694980D01*
X283032434Y-88707768D01*
X283048340Y-88722184D01*
X283062756Y-88738090D01*
X283075544Y-88755333D01*
X283086580Y-88773746D01*
X283095759Y-88793152D01*
X283102991Y-88813364D01*
X283108207Y-88834188D01*
X283111357Y-88855423D01*
X283112410Y-88876864D01*
X283112410Y-89389364D01*
X283111357Y-89410805D01*
X283108207Y-89432040D01*
X283102991Y-89452864D01*
X283095759Y-89473076D01*
X283086580Y-89492482D01*
X283075544Y-89510895D01*
X283062756Y-89528138D01*
X283048340Y-89544044D01*
X283032434Y-89558460D01*
X283015191Y-89571248D01*
X282996778Y-89582284D01*
X282977372Y-89591463D01*
X282957160Y-89598695D01*
X282936336Y-89603911D01*
X282915101Y-89607061D01*
X282893660Y-89608114D01*
X282456160Y-89608114D01*
X282434719Y-89607061D01*
X282413484Y-89603911D01*
X282392660Y-89598695D01*
X282372448Y-89591463D01*
X282353042Y-89582284D01*
X282334629Y-89571248D01*
X282317386Y-89558460D01*
X282301480Y-89544044D01*
X282287064Y-89528138D01*
X282274276Y-89510895D01*
X282263240Y-89492482D01*
X282254061Y-89473076D01*
X282246829Y-89452864D01*
X282241613Y-89432040D01*
X282238463Y-89410805D01*
X282237410Y-89389364D01*
X282237410Y-88876864D01*
X282238463Y-88855423D01*
X282241613Y-88834188D01*
X282246829Y-88813364D01*
X282254061Y-88793152D01*
X282263240Y-88773746D01*
X282274276Y-88755333D01*
X282287064Y-88738090D01*
X282301480Y-88722184D01*
X282317386Y-88707768D01*
X282334629Y-88694980D01*
X282353042Y-88683944D01*
X282372448Y-88674765D01*
X282392660Y-88667533D01*
X282413484Y-88662317D01*
X282434719Y-88659167D01*
X282456160Y-88658114D01*
X282893660Y-88658114D01*
X282915101Y-88659167D01*
X282915101Y-88659167D01*
G37*
D12*
X282674910Y-89133114D03*
G04 #@! TD*
D11*
G04 #@! TO.C,R3*
G36*
X21222398Y-33526419D02*
X21243633Y-33529569D01*
X21264457Y-33534785D01*
X21284669Y-33542017D01*
X21304075Y-33551196D01*
X21322488Y-33562232D01*
X21339731Y-33575020D01*
X21355637Y-33589436D01*
X21370053Y-33605342D01*
X21382841Y-33622585D01*
X21393877Y-33640998D01*
X21403056Y-33660404D01*
X21410288Y-33680616D01*
X21415504Y-33701440D01*
X21418654Y-33722675D01*
X21419707Y-33744116D01*
X21419707Y-34181616D01*
X21418654Y-34203057D01*
X21415504Y-34224292D01*
X21410288Y-34245116D01*
X21403056Y-34265328D01*
X21393877Y-34284734D01*
X21382841Y-34303147D01*
X21370053Y-34320390D01*
X21355637Y-34336296D01*
X21339731Y-34350712D01*
X21322488Y-34363500D01*
X21304075Y-34374536D01*
X21284669Y-34383715D01*
X21264457Y-34390947D01*
X21243633Y-34396163D01*
X21222398Y-34399313D01*
X21200957Y-34400366D01*
X20688457Y-34400366D01*
X20667016Y-34399313D01*
X20645781Y-34396163D01*
X20624957Y-34390947D01*
X20604745Y-34383715D01*
X20585339Y-34374536D01*
X20566926Y-34363500D01*
X20549683Y-34350712D01*
X20533777Y-34336296D01*
X20519361Y-34320390D01*
X20506573Y-34303147D01*
X20495537Y-34284734D01*
X20486358Y-34265328D01*
X20479126Y-34245116D01*
X20473910Y-34224292D01*
X20470760Y-34203057D01*
X20469707Y-34181616D01*
X20469707Y-33744116D01*
X20470760Y-33722675D01*
X20473910Y-33701440D01*
X20479126Y-33680616D01*
X20486358Y-33660404D01*
X20495537Y-33640998D01*
X20506573Y-33622585D01*
X20519361Y-33605342D01*
X20533777Y-33589436D01*
X20549683Y-33575020D01*
X20566926Y-33562232D01*
X20585339Y-33551196D01*
X20604745Y-33542017D01*
X20624957Y-33534785D01*
X20645781Y-33529569D01*
X20667016Y-33526419D01*
X20688457Y-33525366D01*
X21200957Y-33525366D01*
X21222398Y-33526419D01*
X21222398Y-33526419D01*
G37*
D12*
X20944707Y-33962866D03*
D11*
G36*
X21222398Y-35101419D02*
X21243633Y-35104569D01*
X21264457Y-35109785D01*
X21284669Y-35117017D01*
X21304075Y-35126196D01*
X21322488Y-35137232D01*
X21339731Y-35150020D01*
X21355637Y-35164436D01*
X21370053Y-35180342D01*
X21382841Y-35197585D01*
X21393877Y-35215998D01*
X21403056Y-35235404D01*
X21410288Y-35255616D01*
X21415504Y-35276440D01*
X21418654Y-35297675D01*
X21419707Y-35319116D01*
X21419707Y-35756616D01*
X21418654Y-35778057D01*
X21415504Y-35799292D01*
X21410288Y-35820116D01*
X21403056Y-35840328D01*
X21393877Y-35859734D01*
X21382841Y-35878147D01*
X21370053Y-35895390D01*
X21355637Y-35911296D01*
X21339731Y-35925712D01*
X21322488Y-35938500D01*
X21304075Y-35949536D01*
X21284669Y-35958715D01*
X21264457Y-35965947D01*
X21243633Y-35971163D01*
X21222398Y-35974313D01*
X21200957Y-35975366D01*
X20688457Y-35975366D01*
X20667016Y-35974313D01*
X20645781Y-35971163D01*
X20624957Y-35965947D01*
X20604745Y-35958715D01*
X20585339Y-35949536D01*
X20566926Y-35938500D01*
X20549683Y-35925712D01*
X20533777Y-35911296D01*
X20519361Y-35895390D01*
X20506573Y-35878147D01*
X20495537Y-35859734D01*
X20486358Y-35840328D01*
X20479126Y-35820116D01*
X20473910Y-35799292D01*
X20470760Y-35778057D01*
X20469707Y-35756616D01*
X20469707Y-35319116D01*
X20470760Y-35297675D01*
X20473910Y-35276440D01*
X20479126Y-35255616D01*
X20486358Y-35235404D01*
X20495537Y-35215998D01*
X20506573Y-35197585D01*
X20519361Y-35180342D01*
X20533777Y-35164436D01*
X20549683Y-35150020D01*
X20566926Y-35137232D01*
X20585339Y-35126196D01*
X20604745Y-35117017D01*
X20624957Y-35109785D01*
X20645781Y-35104569D01*
X20667016Y-35101419D01*
X20688457Y-35100366D01*
X21200957Y-35100366D01*
X21222398Y-35101419D01*
X21222398Y-35101419D01*
G37*
D12*
X20944707Y-35537866D03*
G04 #@! TD*
D11*
G04 #@! TO.C,R4*
G36*
X38871661Y-43771095D02*
X38892896Y-43774245D01*
X38913720Y-43779461D01*
X38933932Y-43786693D01*
X38953338Y-43795872D01*
X38971751Y-43806908D01*
X38988994Y-43819696D01*
X39004900Y-43834112D01*
X39367293Y-44196505D01*
X39381709Y-44212411D01*
X39394497Y-44229654D01*
X39405533Y-44248067D01*
X39414712Y-44267473D01*
X39421944Y-44287685D01*
X39427160Y-44308509D01*
X39430310Y-44329744D01*
X39431363Y-44351185D01*
X39430310Y-44372626D01*
X39427160Y-44393861D01*
X39421944Y-44414685D01*
X39414712Y-44434897D01*
X39405533Y-44454303D01*
X39394497Y-44472716D01*
X39381709Y-44489959D01*
X39367293Y-44505865D01*
X39057934Y-44815224D01*
X39042028Y-44829640D01*
X39024785Y-44842428D01*
X39006372Y-44853464D01*
X38986966Y-44862643D01*
X38966754Y-44869875D01*
X38945930Y-44875091D01*
X38924695Y-44878241D01*
X38903254Y-44879294D01*
X38881813Y-44878241D01*
X38860578Y-44875091D01*
X38839754Y-44869875D01*
X38819542Y-44862643D01*
X38800136Y-44853464D01*
X38781723Y-44842428D01*
X38764480Y-44829640D01*
X38748574Y-44815224D01*
X38386181Y-44452831D01*
X38371765Y-44436925D01*
X38358977Y-44419682D01*
X38347941Y-44401269D01*
X38338762Y-44381863D01*
X38331530Y-44361651D01*
X38326314Y-44340827D01*
X38323164Y-44319592D01*
X38322111Y-44298151D01*
X38323164Y-44276710D01*
X38326314Y-44255475D01*
X38331530Y-44234651D01*
X38338762Y-44214439D01*
X38347941Y-44195033D01*
X38358977Y-44176620D01*
X38371765Y-44159377D01*
X38386181Y-44143471D01*
X38695540Y-43834112D01*
X38711446Y-43819696D01*
X38728689Y-43806908D01*
X38747102Y-43795872D01*
X38766508Y-43786693D01*
X38786720Y-43779461D01*
X38807544Y-43774245D01*
X38828779Y-43771095D01*
X38850220Y-43770042D01*
X38871661Y-43771095D01*
X38871661Y-43771095D01*
G37*
D12*
X38876737Y-44324668D03*
D11*
G36*
X37757967Y-44884789D02*
X37779202Y-44887939D01*
X37800026Y-44893155D01*
X37820238Y-44900387D01*
X37839644Y-44909566D01*
X37858057Y-44920602D01*
X37875300Y-44933390D01*
X37891206Y-44947806D01*
X38253599Y-45310199D01*
X38268015Y-45326105D01*
X38280803Y-45343348D01*
X38291839Y-45361761D01*
X38301018Y-45381167D01*
X38308250Y-45401379D01*
X38313466Y-45422203D01*
X38316616Y-45443438D01*
X38317669Y-45464879D01*
X38316616Y-45486320D01*
X38313466Y-45507555D01*
X38308250Y-45528379D01*
X38301018Y-45548591D01*
X38291839Y-45567997D01*
X38280803Y-45586410D01*
X38268015Y-45603653D01*
X38253599Y-45619559D01*
X37944240Y-45928918D01*
X37928334Y-45943334D01*
X37911091Y-45956122D01*
X37892678Y-45967158D01*
X37873272Y-45976337D01*
X37853060Y-45983569D01*
X37832236Y-45988785D01*
X37811001Y-45991935D01*
X37789560Y-45992988D01*
X37768119Y-45991935D01*
X37746884Y-45988785D01*
X37726060Y-45983569D01*
X37705848Y-45976337D01*
X37686442Y-45967158D01*
X37668029Y-45956122D01*
X37650786Y-45943334D01*
X37634880Y-45928918D01*
X37272487Y-45566525D01*
X37258071Y-45550619D01*
X37245283Y-45533376D01*
X37234247Y-45514963D01*
X37225068Y-45495557D01*
X37217836Y-45475345D01*
X37212620Y-45454521D01*
X37209470Y-45433286D01*
X37208417Y-45411845D01*
X37209470Y-45390404D01*
X37212620Y-45369169D01*
X37217836Y-45348345D01*
X37225068Y-45328133D01*
X37234247Y-45308727D01*
X37245283Y-45290314D01*
X37258071Y-45273071D01*
X37272487Y-45257165D01*
X37581846Y-44947806D01*
X37597752Y-44933390D01*
X37614995Y-44920602D01*
X37633408Y-44909566D01*
X37652814Y-44900387D01*
X37673026Y-44893155D01*
X37693850Y-44887939D01*
X37715085Y-44884789D01*
X37736526Y-44883736D01*
X37757967Y-44884789D01*
X37757967Y-44884789D01*
G37*
D12*
X37763043Y-45438362D03*
G04 #@! TD*
D10*
G04 #@! TO.C,LED1*
X292316346Y-43358000D03*
X292316346Y-46558000D03*
X287416346Y-43358000D03*
X287416346Y-46558000D03*
G04 #@! TD*
G04 #@! TO.C,LED2*
X273978138Y-18450253D03*
X273978138Y-15250253D03*
X278878138Y-18450253D03*
X278878138Y-15250253D03*
G04 #@! TD*
G04 #@! TO.C,LED3*
X223847323Y-19867564D03*
X223847323Y-16667564D03*
X228747323Y-19867564D03*
X228747323Y-16667564D03*
G04 #@! TD*
G04 #@! TO.C,LED4*
X171739925Y-16510085D03*
X171739925Y-19710085D03*
X166839925Y-16510085D03*
X166839925Y-19710085D03*
G04 #@! TD*
G04 #@! TO.C,LED6*
X57200199Y-16037648D03*
X57200199Y-19237648D03*
X52300199Y-16037648D03*
X52300199Y-19237648D03*
G04 #@! TD*
G04 #@! TO.C,LED7*
X6841261Y-23279609D03*
X6841261Y-20079609D03*
X11741261Y-23279609D03*
X11741261Y-20079609D03*
G04 #@! TD*
G04 #@! TO.C,LED8*
X7279356Y-46378602D03*
X7279356Y-49578602D03*
X2379356Y-46378602D03*
X2379356Y-49578602D03*
G04 #@! TD*
G04 #@! TO.C,LED9*
X17602326Y-93777708D03*
X17602326Y-90577708D03*
X22502326Y-93777708D03*
X22502326Y-90577708D03*
G04 #@! TD*
G04 #@! TO.C,LED10*
X75100312Y-90472722D03*
X75100312Y-93672722D03*
X70200312Y-90472722D03*
X70200312Y-93672722D03*
G04 #@! TD*
G04 #@! TO.C,LED11*
X137706310Y-93987680D03*
X137706310Y-90787680D03*
X142606310Y-93987680D03*
X142606310Y-90787680D03*
G04 #@! TD*
G04 #@! TO.C,LED12*
X190479926Y-90787680D03*
X190479926Y-93987680D03*
X185579926Y-90787680D03*
X185579926Y-93987680D03*
G04 #@! TD*
G04 #@! TO.C,LED13*
X233086091Y-94512610D03*
X233086091Y-91312610D03*
X237986091Y-94512610D03*
X237986091Y-91312610D03*
G04 #@! TD*
G04 #@! TO.C,LED14*
X285597242Y-92414963D03*
X285597242Y-95614963D03*
X280697242Y-92414963D03*
X280697242Y-95614963D03*
G04 #@! TD*
M02*
